<?xml version="1.0" encoding="UTF-8" standalone="no"?>
<svg
   xmlns:dc="http://purl.org/dc/elements/1.1/"
   xmlns:cc="http://creativecommons.org/ns#"
   xmlns:rdf="http://www.w3.org/1999/02/22-rdf-syntax-ns#"
   xmlns:svg="http://www.w3.org/2000/svg"
   xmlns="http://www.w3.org/2000/svg"
   xmlns:sodipodi="http://sodipodi.sourceforge.net/DTD/sodipodi-0.dtd"
   xmlns:inkscape="http://www.inkscape.org/namespaces/inkscape"
   width="210mm"
   height="297mm"
   viewBox="0 0 210 297"
   version="1.1"
   id="svg8"
   sodipodi:docname="Cow Model.svg"
   inkscape:version="1.0.1 (3bc2e813f5, 2020-09-07)">
  <defs
     id="defs2">
    <inkscape:perspective
       sodipodi:type="inkscape:persp3d"
       inkscape:vp_x="0 : 148.5 : 1"
       inkscape:vp_y="0 : 1000 : 0"
       inkscape:vp_z="210 : 148.5 : 1"
       inkscape:persp3d-origin="105 : 99 : 1"
       id="perspective976" />
  </defs>
  <sodipodi:namedview
     id="base"
     pagecolor="#ffffff"
     bordercolor="#666666"
     borderopacity="1.0"
     inkscape:pageopacity="0.0"
     inkscape:pageshadow="2"
     inkscape:zoom="2.8284271"
     inkscape:cx="498.87054"
     inkscape:cy="804.03295"
     inkscape:document-units="mm"
     inkscape:current-layer="layer1"
     inkscape:document-rotation="0"
     showgrid="false"
     inkscape:snap-grids="false"
     inkscape:window-width="2100"
     inkscape:window-height="1234"
     inkscape:window-x="-9"
     inkscape:window-y="36"
     inkscape:window-maximized="1" />
  <metadata
     id="metadata5">
    <rdf:RDF>
      <cc:Work
         rdf:about="">
        <dc:format>image/svg+xml</dc:format>
        <dc:type
           rdf:resource="http://purl.org/dc/dcmitype/StillImage" />
        <dc:title></dc:title>
      </cc:Work>
    </rdf:RDF>
  </metadata>
  <g
     inkscape:label="Layer 1"
     inkscape:groupmode="layer"
     id="layer1">
    <rect
       style="opacity:1;fill:#f2f2f2;fill-opacity:1;fill-rule:evenodd;stroke:#000000;stroke-width:0.264583;stroke-opacity:1"
       id="rect943"
       width="10.847917"
       height="39.6875"
       x="101.86458"
       y="256.9104"
       ry="1.4552215" />
    <rect
       style="opacity:1;fill:#f2f2f2;fill-opacity:1;fill-rule:evenodd;stroke:#000000;stroke-width:0.264583;stroke-opacity:1"
       id="rect945"
       width="7.3922873"
       height="29.061539"
       x="117.75563"
       y="260.39261"
       ry="1.4552215" />
    <rect
       style="opacity:1;fill:#f2f2f2;fill-opacity:1;fill-rule:evenodd;stroke:#000000;stroke-width:0.264583;stroke-opacity:1"
       id="rect949"
       width="9.2604103"
       height="35.718758"
       x="157.16251"
       y="261.40833"
       ry="1.4552215" />
    <rect
       style="opacity:1;fill:#f2f2f2;fill-opacity:1;fill-rule:evenodd;stroke:#000000;stroke-width:0.264583;stroke-opacity:1"
       id="rect955"
       width="10.847917"
       height="39.158333"
       x="164.30624"
       y="259.0271"
       ry="1.4552215" />
    <rect
       style="opacity:1;fill:#502d16;fill-opacity:1;fill-rule:evenodd;stroke:#000000;stroke-width:0.264583;stroke-opacity:1"
       id="rect957"
       width="11.112505"
       height="5.8208494"
       x="101.86457"
       y="296.59787"
       ry="1.4552215" />
    <rect
       style="opacity:1;fill:#502d16;fill-opacity:1;fill-rule:evenodd;stroke:#000000;stroke-width:0.264583;stroke-opacity:1"
       id="rect959"
       width="7.4083347"
       height="7.143754"
       x="117.475"
       y="289.45416"
       ry="1.4552215" />
    <rect
       style="opacity:1;fill:#502d16;fill-opacity:1;fill-rule:evenodd;stroke:#000000;stroke-width:0.264583;stroke-opacity:1"
       id="rect961"
       width="7.9374695"
       height="6.3500123"
       x="157.16251"
       y="297.12708"
       ry="1.4552215" />
    <rect
       style="opacity:1;fill:#502d16;fill-opacity:1;fill-rule:evenodd;stroke:#000000;stroke-width:0.264583;stroke-opacity:1"
       id="rect966"
       width="10.583317"
       height="7.1437397"
       x="164.30624"
       y="298.18542"
       ry="1.4552215" />
    <rect
       style="opacity:1;mix-blend-mode:normal;fill:#f2f2f2;fill-opacity:1;fill-rule:evenodd;stroke:#000000;stroke-width:0.264583;stroke-opacity:1"
       id="rect1006"
       width="100.01249"
       height="53.71043"
       x="91.016655"
       y="208.49165"
       ry="26.722925" />
    <rect
       style="opacity:1;fill:#f2f2f2;fill-opacity:1;fill-rule:evenodd;stroke:#000000;stroke-width:0.264583;stroke-opacity:1"
       id="rect1390"
       width="6.8791666"
       height="19.049999"
       x="180.97501"
       y="248.17917"
       ry="3.4395833" />
    <rect
       style="opacity:1;fill:#784421;fill-opacity:1;fill-rule:evenodd;stroke:#000000;stroke-width:0.264583;stroke-opacity:1"
       id="rect1392"
       width="9.5249949"
       height="18.785427"
       x="183.09167"
       y="257.83646"
       ry="3.4395833" />
    <rect
       style="opacity:1;fill:#f2f2f2;fill-opacity:1;fill-rule:evenodd;stroke:#000000;stroke-width:0.264583;stroke-opacity:1"
       id="rect1394"
       width="34.39584"
       height="57.679161"
       x="75.538528"
       y="178.85831"
       ry="15.478123" />
    <rect
       style="opacity:1;fill:#24221c;fill-opacity:0.98;fill-rule:evenodd;stroke:#000000;stroke-width:0.264583;stroke-opacity:1"
       id="rect1404"
       width="3.4395833"
       height="6.8791666"
       x="86.518745"
       y="193.93958"
       ry="1.7197917" />
    <rect
       style="opacity:1;fill:#24221c;fill-opacity:0.98;fill-rule:evenodd;stroke:#000000;stroke-width:0.264583;stroke-opacity:1"
       id="rect1406"
       width="3.4395833"
       height="6.0854168"
       x="97.102081"
       y="194.20416"
       ry="1.7197917" />
    <rect
       style="opacity:1;fill:#ffccaa;fill-opacity:1;fill-rule:evenodd;stroke:#000000;stroke-width:0.264583;stroke-opacity:1"
       id="rect1408"
       width="46.169792"
       height="37.570808"
       x="68.791664"
       y="203.72917"
       ry="18.785404" />
    <path
       style="fill:none;stroke:#000000;stroke-width:0.264583px;stroke-linecap:butt;stroke-linejoin:miter;stroke-opacity:1"
       d="m 76.464582,221.45625 c 17.849337,22.05549 25.557938,6.99207 29.104168,0 z"
       id="path1436"
       sodipodi:nodetypes="ccc" />
    <path
       style="opacity:1;fill:#000000;fill-opacity:1;fill-rule:evenodd;stroke:#000000;stroke-opacity:1.19677e-07"
       d="m 338.52951,876.91325 c -10.41279,-3.67537 -20.09485,-10.73807 -34.31282,-25.02992 l -13,-13.06755 52.40767,-0.259 c 28.82421,-0.14245 52.60847,-0.0582 52.85391,0.18725 0.71582,0.71582 -7.63285,14.83412 -13.04726,22.06401 -12.35626,16.49938 -27.94438,22.0905 -44.9015,16.10521 z"
       id="path1438"
       transform="scale(0.26458333)" />
    <rect
       style="opacity:1;fill:#000000;fill-opacity:1;fill-rule:evenodd;stroke:#000000;stroke-width:0.264583;stroke-opacity:1"
       id="rect1454"
       width="2.1166666"
       height="4.4979167"
       x="84.402084"
       y="209.55"
       ry="1.0583333" />
    <rect
       style="opacity:1;fill:#000000;fill-opacity:1;fill-rule:evenodd;stroke:#000000;stroke-width:0.264583;stroke-opacity:1"
       id="rect1456"
       width="2.3812499"
       height="4.7624998"
       x="95.25"
       y="209.54999"
       ry="1.0583333" />
    <circle
       style="opacity:1;fill:#241f1c;fill-opacity:1;fill-rule:evenodd;stroke:#000000;stroke-width:0.259416;stroke-opacity:1"
       id="path2492"
       sodipodi:type="arc"
       sodipodi:cx="221.30302"
       sodipodi:cy="-115.44259"
       sodipodi:rx="6.358901"
       sodipodi:ry="8.4295015"
       sodipodi:start="3.8223409"
       sodipodi:end="3.3821688"
       sodipodi:open="true"
       sodipodi:arc-type="arc"
       d="m 216.36151,-120.7479 a 6.358901,8.4295015 0 0 1 8.37676,-1.78828 6.358901,8.4295015 0 0 1 2.26079,10.84085 6.358901,8.4295015 0 0 1 -7.88019,4.16939 6.358901,8.4295015 0 0 1 -3.99162,-9.92508"
       inkscape:transform-center-x="-0.1851903"
       inkscape:transform-center-y="1.3025631"
       transform="matrix(-0.2050575,0.97874993,-0.9824883,0.18632428,0,0)" />
    <circle
       style="opacity:1;fill:#241f1c;fill-opacity:1;fill-rule:evenodd;stroke:#000000;stroke-width:0.221583;stroke-opacity:1"
       id="path2492-5"
       sodipodi:type="arc"
       sodipodi:cx="-5.9289789"
       sodipodi:cy="228.84415"
       sodipodi:rx="5.3158679"
       sodipodi:ry="7.3568053"
       sodipodi:start="3.8223409"
       sodipodi:end="3.3821688"
       sodipodi:open="true"
       sodipodi:arc-type="arc"
       d="m -10.059951,224.21396 a 5.3158679,7.3568053 0 0 1 7.0027402,-1.56071 5.3158679,7.3568053 0 0 1 1.8899648,9.4613 5.3158679,7.3568053 0 0 1 -6.5876239,3.63882 5.3158679,7.3568053 0 0 1 -3.3368841,-8.66207"
       inkscape:transform-center-x="-0.93595368"
       inkscape:transform-center-y="-0.61301824"
       transform="matrix(0.97666405,-0.21477273,0.53695457,0.84361116,0,0)" />
    <path
       style="fill:#ffccaa;stroke:#000000;stroke-width:0.264583px;stroke-linecap:butt;stroke-linejoin:miter;stroke-opacity:1"
       d="m 113.24167,167.74583 1.32291,1.32292 c 2.49473,2.7395 4.29003,6.54781 4.49792,9.78958 -0.43944,5.14305 -1.20823,8.26997 -3.175,9.78958 -0.25417,0.23337 -0.49739,0.40486 -0.79375,0.52917 -1.15082,0.93916 -5.48914,1.75554 -5.56496,1.14592 -0.14677,-0.22015 -0.13707,-0.61351 -0.21047,-0.72359 -0.13838,-0.20755 -0.15694,-0.48532 -0.29531,-0.69288 -0.0978,-0.14676 -0.41316,-1.03586 -0.53788,-1.16058 -3.66954,-4.90949 1.60802,-4.51892 3.26992,-7.89073 1.44501,-2.08792 1.24533,-5.67389 1.22203,-8.14064 v 0 c 0,0 0.26459,-3.66423 0.26459,-3.96875 z"
       id="path5397"
       sodipodi:nodetypes="ccccccsscccsc" />
    <path
       style="fill:#ffccaa;stroke:#000000;stroke-width:0.279393px;stroke-linecap:butt;stroke-linejoin:miter;stroke-opacity:1"
       d="m 73.346016,167.24056 -1.475151,1.32292 c -2.781826,2.7395 -4.783731,6.54781 -5.015545,9.78958 0.490011,5.14305 1.347274,8.26997 3.540382,9.78958 0.28342,0.23337 0.55463,0.40486 0.885095,0.52917 1.283258,0.93916 6.120835,1.75554 6.205381,1.14592 0.16366,-0.22015 0.152844,-0.61351 0.234691,-0.72359 0.154305,-0.20755 0.175001,-0.48532 0.329294,-0.69288 0.109055,-0.14676 0.460707,-1.03586 0.59978,-1.16058 4.091834,-4.90949 -1.793072,-4.51892 -3.646225,-7.89073 -1.611303,-2.08792 -1.388644,-5.67389 -1.362663,-8.14064 v 0 c 0,0 -0.295039,-3.66423 -0.295039,-3.96875 z"
       id="path5397-7"
       sodipodi:nodetypes="ccccccsscccsc" />
    <path
       style="opacity:1;fill:#241f1c;fill-opacity:1;fill-rule:evenodd;stroke:#000000;stroke-width:0.264583;stroke-opacity:1"
       id="path5583"
       sodipodi:type="arc"
       sodipodi:cx="170.50885"
       sodipodi:cy="220.58064"
       sodipodi:rx="6.9972177"
       sodipodi:ry="7.0348248"
       sodipodi:start="3.8223409"
       sodipodi:end="3.3821688"
       sodipodi:open="true"
       sodipodi:arc-type="arc"
       d="m 165.0713,216.1531 a 6.9972177,7.0348248 0 0 1 9.21763,-1.4924 6.9972177,7.0348248 0 0 1 2.48774,9.04721 6.9972177,7.0348248 0 0 1 -8.67122,3.47956 6.9972177,7.0348248 0 0 1 -4.3923,-8.28296" />
    <path
       style="opacity:1;fill:#241f1c;fill-opacity:1;fill-rule:evenodd;stroke:#000000;stroke-width:0.264583;stroke-opacity:1"
       id="path5593"
       sodipodi:type="arc"
       sodipodi:cx="128.29605"
       sodipodi:cy="248.78116"
       sodipodi:rx="5.1917105"
       sodipodi:ry="6.4077868"
       sodipodi:start="3.8223409"
       sodipodi:end="3.3821688"
       sodipodi:open="true"
       sodipodi:arc-type="arc"
       d="m 124.26156,244.74826 a 5.1917105,6.4077868 0 0 1 6.83919,-1.35938 5.1917105,6.4077868 0 0 1 1.84582,8.2408 5.1917105,6.4077868 0 0 1 -6.43376,3.16942 5.1917105,6.4077868 0 0 1 -3.25895,-7.54468" />
    <path
       style="opacity:1;fill:#241f1c;fill-opacity:1;fill-rule:evenodd;stroke:#000000;stroke-width:0.264583;stroke-opacity:1"
       id="path5595"
       sodipodi:type="arc"
       sodipodi:cx="106.17282"
       sodipodi:cy="247.89249"
       sodipodi:rx="1.7773423"
       sodipodi:ry="1.9644309"
       sodipodi:start="3.8223409"
       sodipodi:end="3.3821688"
       sodipodi:open="true"
       sodipodi:arc-type="arc"
       d="m 104.79164,246.65612 a 1.7773423,1.9644309 0 0 1 2.34135,-0.41674 1.7773423,1.9644309 0 0 1 0.6319,2.52638 1.7773423,1.9644309 0 0 1 -2.20255,0.97164 1.7773423,1.9644309 0 0 1 -1.11568,-2.31296" />
    <path
       style="opacity:1;fill:#241f1c;fill-opacity:1;fill-rule:evenodd;stroke:#000000;stroke-width:0.264583;stroke-opacity:1"
       id="path5597"
       sodipodi:type="arc"
       sodipodi:cx="126.93966"
       sodipodi:cy="229.93198"
       sodipodi:rx="6.1739259"
       sodipodi:ry="7.3900023"
       sodipodi:start="3.8223409"
       sodipodi:end="3.3821688"
       sodipodi:open="true"
       sodipodi:arc-type="arc"
       d="m 122.14189,225.2809 a 6.1739259,7.3900023 0 0 1 8.13308,-1.56776 6.1739259,7.3900023 0 0 1 2.19503,9.504 6.1739259,7.3900023 0 0 1 -7.65096,3.65523 6.1739259,7.3900023 0 0 1 -3.8755,-8.70115" />
    <path
       style="opacity:1;fill:#241f1c;fill-opacity:1;fill-rule:evenodd;stroke:#000000;stroke-width:0.264583;stroke-opacity:1"
       id="path5599"
       sodipodi:type="arc"
       sodipodi:cx="117.58523"
       sodipodi:cy="213.70204"
       sodipodi:rx="0.56126595"
       sodipodi:ry="0.60803819"
       sodipodi:start="3.8223409"
       sodipodi:end="3.3821688"
       sodipodi:open="true"
       sodipodi:arc-type="arc"
       d="m 117.14907,213.31936 a 0.56126595,0.60803819 0 0 1 0.73937,-0.12899 0.56126595,0.60803819 0 0 1 0.19955,0.78197 0.56126595,0.60803819 0 0 1 -0.69555,0.30075 0.56126595,0.60803819 0 0 1 -0.35231,-0.71592" />
    <path
       style="opacity:1;fill:#241f1c;fill-opacity:1;fill-rule:evenodd;stroke:#000000;stroke-width:0.264583;stroke-opacity:1"
       id="path5601"
       sodipodi:type="arc"
       sodipodi:cx="146.81783"
       sodipodi:cy="232.17703"
       sodipodi:rx="2.6660137"
       sodipodi:ry="3.6482289"
       sodipodi:start="3.8223409"
       sodipodi:end="3.3821688"
       sodipodi:open="true"
       sodipodi:arc-type="arc"
       d="m 144.74606,229.88093 a 2.6660137,3.6482289 0 0 1 3.51201,-0.77396 2.6660137,3.6482289 0 0 1 0.94786,4.69185 2.6660137,3.6482289 0 0 1 -3.30383,1.80448 2.6660137,3.6482289 0 0 1 -1.67351,-4.2955" />
    <path
       style="opacity:1;fill:#241f1c;fill-opacity:1;fill-rule:evenodd;stroke:#000000;stroke-width:0.264583;stroke-opacity:1"
       id="path5603"
       sodipodi:type="arc"
       sodipodi:cx="154.11429"
       sodipodi:cy="246.58286"
       sodipodi:rx="1.0757599"
       sodipodi:ry="1.8708867"
       sodipodi:start="3.8223409"
       sodipodi:end="3.3821688"
       sodipodi:open="true"
       sodipodi:arc-type="arc"
       d="m 153.27831,245.40537 a 1.0757599,1.8708867 0 0 1 1.41713,-0.3969 1.0757599,1.8708867 0 0 1 0.38247,2.40607 1.0757599,1.8708867 0 0 1 -1.33312,0.92538 1.0757599,1.8708867 0 0 1 -0.67528,-2.20283" />
    <path
       style="opacity:1;fill:#241f1c;fill-opacity:1;fill-rule:evenodd;stroke:#000000;stroke-width:0.264583;stroke-opacity:1"
       id="path5605"
       sodipodi:type="arc"
       sodipodi:cx="145.83562"
       sodipodi:cy="244.3378"
       sodipodi:rx="0.18708867"
       sodipodi:ry="0.28063297"
       sodipodi:start="3.8223409"
       sodipodi:end="3.3821688"
       sodipodi:open="true"
       sodipodi:arc-type="arc"
       d="m 145.69023,244.16118 a 0.18708867,0.28063297 0 0 1 0.24646,-0.0595 0.18708867,0.28063297 0 0 1 0.0665,0.36091 0.18708867,0.28063297 0 0 1 -0.23184,0.13881 0.18708867,0.28063297 0 0 1 -0.11744,-0.33043" />
    <path
       style="opacity:1;fill:#241f1c;fill-opacity:1;fill-rule:evenodd;stroke:#000000;stroke-width:0.264583;stroke-opacity:1"
       id="path5607"
       sodipodi:type="arc"
       sodipodi:cx="172.40221"
       sodipodi:cy="243.07495"
       sodipodi:rx="4.3030396"
       sodipodi:ry="4.3498116"
       sodipodi:start="3.8223409"
       sodipodi:end="3.3821688"
       sodipodi:open="true"
       sodipodi:arc-type="arc"
       d="m 169.05831,240.33729 a 4.3030396,4.3498116 0 0 1 5.66851,-0.92279 4.3030396,4.3498116 0 0 1 1.52987,5.59412 4.3030396,4.3498116 0 0 1 -5.33249,2.1515 4.3030396,4.3498116 0 0 1 -2.70111,-5.12156" />
    <path
       style="opacity:1;fill:#241f1c;fill-opacity:1;fill-rule:evenodd;stroke:#000000;stroke-width:0.264583;stroke-opacity:1"
       id="path5609"
       sodipodi:type="arc"
       sodipodi:cx="145.64851"
       sodipodi:cy="213.93588"
       sodipodi:rx="4.4901276"
       sodipodi:ry="4.583672"
       sodipodi:start="3.8223409"
       sodipodi:end="3.7829879"
       sodipodi:open="true"
       sodipodi:arc-type="arc"
       d="m 142.15923,211.05104 a 4.4901276,4.583672 0 0 1 6.28079,-0.70535 4.4901276,4.583672 0 0 1 0.75271,6.4044 4.4901276,4.583672 0 0 1 -6.26599,0.83136 4.4901276,4.583672 0 0 1 -0.87599,-6.38804" />
    <path
       style="opacity:1;fill:#241f1c;fill-opacity:1;fill-rule:evenodd;stroke:#000000;stroke-width:0.264583;stroke-opacity:1"
       id="path5611"
       sodipodi:type="arc"
       sodipodi:cx="143.30992"
       sodipodi:cy="258.93073"
       sodipodi:rx="2.2450638"
       sodipodi:ry="1.8708867"
       sodipodi:start="3.8223409"
       sodipodi:end="3.3821688"
       sodipodi:open="true"
       sodipodi:arc-type="arc"
       d="m 141.56528,257.75324 a 2.2450638,1.8708867 0 0 1 2.95748,-0.3969 2.2450638,1.8708867 0 0 1 0.7982,2.40607 2.2450638,1.8708867 0 0 1 -2.78217,0.92538 2.2450638,1.8708867 0 0 1 -1.40928,-2.20283" />
  </g>
</svg>
