<?xml version="1.0" encoding="UTF-8" standalone="no"?>
<svg
   xmlns:dc="http://purl.org/dc/elements/1.1/"
   xmlns:cc="http://creativecommons.org/ns#"
   xmlns:rdf="http://www.w3.org/1999/02/22-rdf-syntax-ns#"
   xmlns:svg="http://www.w3.org/2000/svg"
   xmlns="http://www.w3.org/2000/svg"
   xmlns:sodipodi="http://sodipodi.sourceforge.net/DTD/sodipodi-0.dtd"
   xmlns:inkscape="http://www.inkscape.org/namespaces/inkscape"
   width="210mm"
   height="297mm"
   viewBox="0 0 210 297"
   version="1.1"
   id="svg8"
   inkscape:version="1.0.1 (3bc2e813f5, 2020-09-07)"
   sodipodi:docname="grass teachure.svg">
  <defs
     id="defs2" />
  <sodipodi:namedview
     id="base"
     pagecolor="#ffffff"
     bordercolor="#666666"
     borderopacity="1.0"
     inkscape:pageopacity="0.0"
     inkscape:pageshadow="2"
     inkscape:zoom="1"
     inkscape:cx="208.87869"
     inkscape:cy="420.19531"
     inkscape:document-units="mm"
     inkscape:current-layer="layer1"
     inkscape:document-rotation="0"
     showgrid="false"
     inkscape:snap-others="false"
     inkscape:object-nodes="false"
     inkscape:snap-nodes="false"
     inkscape:snap-global="false"
     inkscape:window-width="1920"
     inkscape:window-height="1001"
     inkscape:window-x="-9"
     inkscape:window-y="-9"
     inkscape:window-maximized="1" />
  <metadata
     id="metadata5">
    <rdf:RDF>
      <cc:Work
         rdf:about="">
        <dc:format>image/svg+xml</dc:format>
        <dc:type
           rdf:resource="http://purl.org/dc/dcmitype/StillImage" />
        <dc:title></dc:title>
      </cc:Work>
    </rdf:RDF>
  </metadata>
  <g
     inkscape:label="Layer 1"
     inkscape:groupmode="layer"
     id="layer1">
    <path
       style="fill:#00ff00;fill-rule:evenodd"
       d=""
       id="path70"
       transform="scale(0.26458333)" />
    <path
       style="fill:#00ff00;fill-rule:evenodd"
       d=""
       id="path74"
       transform="scale(0.26458333)" />
    <g
       id="g111"
       transform="matrix(0.95698541,0,0,1.000029,-21.193282,-14.02673)">
      <rect
         style="fill:#784421;fill-rule:evenodd;stroke-width:0.264583"
         id="rect40"
         width="12.964583"
         height="9.7895832"
         x="48.683334"
         y="103.98125" />
      <path
         style="fill:#784421;fill-rule:evenodd"
         d="m 184,411.28571 v -18 h 24.5 24.5 v 18 18 H 208.5 184 Z"
         id="path42"
         transform="scale(0.26458333)" />
      <path
         style="fill:#502d16;fill-rule:evenodd"
         d="m 184,411.28571 v -18 h 24.5 24.5 v 18 18 H 208.5 184 Z"
         id="path44"
         transform="scale(0.26458333)" />
      <path
         style="fill:#a05a2c;fill-rule:evenodd"
         d="m 184,411.28571 v -18 h 24.5 24.5 v 18 18 H 208.5 184 Z"
         id="path46"
         transform="scale(0.26458333)" />
      <path
         style="fill:#784421;fill-rule:evenodd;stroke-width:0.754844"
         d="m 48.683333,131.58469 v -27.52785 h 9.128124 9.128126 v 27.52785 27.52784 h -9.128126 -9.128124 z"
         id="path48" />
      <path
         style="fill:none;stroke:#000000;stroke-width:0.280853px;stroke-linecap:butt;stroke-linejoin:miter;stroke-opacity:1"
         d="m 48.684997,104.52048 4.188956,5.79968 2.6929,-6.06331 3.291324,5.27244 2.992111,-5.00881 2.39369,4.74519 2.6929,-5.00882"
         id="path54" />
      <path
         style="fill:#008000;fill-rule:evenodd"
         d="m 192.01701,404.32045 c -3.92608,-5.49902 -7.13832,-10.25178 -7.13832,-10.56168 0,-0.3099 5.4,-0.56346 12,-0.56346 6.6,0 12,0.16818 12,0.37372 0,0.79102 -8.27885,19.16883 -8.98167,19.93796 -0.40793,0.44643 -3.95394,-3.68752 -7.88001,-9.18654 z"
         id="path56"
         transform="scale(0.26458333)" />
      <path
         style="fill:#008000;fill-rule:evenodd"
         d="m 216.70826,402.783 -5.67042,-9.08769 10.55192,-0.28517 c 5.80356,-0.15684 10.76116,-0.0759 11.01689,0.17979 0.25573,0.25573 -1.94095,4.47352 -4.8815,9.37286 l -5.34646,8.9079 z"
         id="path58"
         transform="scale(0.26458333)" />
      <path
         style="fill:#008000;fill-rule:evenodd"
         d="m 238.56898,402.62017 c -2.02966,-4.10187 -3.69029,-7.6755 -3.69029,-7.94141 0,-0.2659 3.76639,-0.48345 8.36975,-0.48345 h 8.36976 l -3.91313,7.46779 c -2.15222,4.10729 -4.25798,7.68092 -4.67946,7.94141 -0.42148,0.26049 -2.42696,-2.88246 -4.45663,-6.98434 z"
         id="path60"
         transform="scale(0.26458333)" />
      <path
         style="fill:#008000;fill-rule:evenodd"
         d="m 197.18684,409.94531 c -1.12226,-1.2375 -4.14541,-5.175 -6.71811,-8.75 l -4.67763,-6.5 5.2938,-0.62985 c 4.85698,-0.57789 16.79379,-0.0418 16.79379,0.75417 0,0.75937 -7.90004,17.37568 -8.26108,17.37568 -0.21466,0 -1.30851,-1.0125 -2.43077,-2.25 z"
         id="path64"
         transform="scale(0.26458333)" />
      <path
         style="fill:#008000;fill-rule:evenodd"
         d="m 217.17693,402.53122 -5.20176,-8.33591 h 9.97744 9.97744 l -1.52414,2.94737 c -0.83829,1.62106 -2.98734,5.37222 -4.77569,8.33591 l -3.25153,5.38854 z"
         id="path66"
         transform="scale(0.26458333)" />
      <path
         style="fill:#00ff00;fill-rule:evenodd"
         d="m 238.92182,402.12484 c -1.77954,-3.33875 -3.05339,-6.25261 -2.83077,-6.47522 0.22262,-0.22262 3.7024,-0.71125 7.73286,-1.08584 l 7.3281,-0.68107 -3.76053,7.1563 c -2.06829,3.93596 -4.09209,7.1563 -4.49733,7.1563 -0.40525,0 -2.1928,-2.73171 -3.97233,-6.07047 z"
         id="path68"
         transform="scale(0.26458333)" />
      <path
         style="fill:#00ff00;fill-rule:evenodd"
         d="m 217.10782,402.59842 -5.20095,-8.40311 h 10.01159 10.01159 l -1.52414,2.94737 c -0.83829,1.62106 -3.00307,5.40246 -4.81065,8.40311 l -3.28649,5.45574 z"
         id="path72"
         transform="scale(0.26458333)" />
      <path
         style="fill:#00ff00;fill-rule:evenodd"
         d="m 197.18684,409.94531 c -1.12226,-1.2375 -4.14541,-5.175 -6.71811,-8.75 l -4.67763,-6.5 5.2938,-0.62985 c 5.22424,-0.62158 16.79379,-0.0188 16.79379,0.87495 0,0.83406 -7.86151,17.2549 -8.26082,17.2549 -0.2148,0 -1.30877,-1.0125 -2.43103,-2.25 z"
         id="path89"
         transform="scale(0.26458333)" />
      <path
         style="fill:#00ff00;fill-rule:evenodd"
         d="m 217.56308,402.42225 -4.70901,-7.72694 8.63821,-0.29077 c 4.75101,-0.15992 8.86352,-0.0655 9.13889,0.20992 0.27538,0.27538 -1.49276,3.88335 -3.92919,8.01771 l -4.42989,7.51702 z"
         id="path91"
         transform="scale(0.26458333)" />
      <path
         style="fill:#00ff00;fill-rule:evenodd"
         d="m 239.51979,402.10319 c -1.57239,-2.79955 -2.47239,-5.442 -2,-5.87212 1.00862,-0.91836 12.3589,-2.14934 12.3589,-1.34038 0,0.95837 -6.43767,12.30467 -6.98082,12.3036 -0.28555,-5.6e-4 -1.80568,-2.29155 -3.37808,-5.0911 z"
         id="path93"
         transform="scale(0.26458333)" />
    </g>
  </g>
</svg>
