<?xml version="1.0" encoding="UTF-8" standalone="no"?>
<svg
   xmlns:dc="http://purl.org/dc/elements/1.1/"
   xmlns:cc="http://creativecommons.org/ns#"
   xmlns:rdf="http://www.w3.org/1999/02/22-rdf-syntax-ns#"
   xmlns:svg="http://www.w3.org/2000/svg"
   xmlns="http://www.w3.org/2000/svg"
   xmlns:sodipodi="http://sodipodi.sourceforge.net/DTD/sodipodi-0.dtd"
   xmlns:inkscape="http://www.inkscape.org/namespaces/inkscape"
   width="210mm"
   height="297mm"
   viewBox="0 0 210 297"
   version="1.1"
   id="svg1855"
   inkscape:version="1.0.1 (3bc2e813f5, 2020-09-07)"
   sodipodi:docname="moon-face texure.svg">
  <defs
     id="defs1849" />
  <sodipodi:namedview
     id="base"
     pagecolor="#ffffff"
     bordercolor="#666666"
     borderopacity="1.0"
     inkscape:pageopacity="0.0"
     inkscape:pageshadow="2"
     inkscape:zoom="0.35"
     inkscape:cx="400"
     inkscape:cy="560"
     inkscape:document-units="mm"
     inkscape:current-layer="layer1"
     inkscape:document-rotation="0"
     showgrid="false"
     inkscape:snap-global="false"
     inkscape:window-width="1920"
     inkscape:window-height="1001"
     inkscape:window-x="-9"
     inkscape:window-y="-9"
     inkscape:window-maximized="1" />
  <metadata
     id="metadata1852">
    <rdf:RDF>
      <cc:Work
         rdf:about="">
        <dc:format>image/svg+xml</dc:format>
        <dc:type
           rdf:resource="http://purl.org/dc/dcmitype/StillImage" />
        <dc:title></dc:title>
      </cc:Work>
    </rdf:RDF>
  </metadata>
  <g
     inkscape:label="Layer 1"
     inkscape:groupmode="layer"
     id="layer1">
    <g
       id="g2006"
       transform="matrix(1.0518886,0,0,1.1187693,-2.781175,-5.8740496)">
      <path
         style="fill:none;stroke:#000000;stroke-width:0.545493px;stroke-linecap:butt;stroke-linejoin:miter;stroke-opacity:1"
         d="m 149.20458,52.017036 v 0 C 50.500485,66.185864 126.55167,212.8629 155.24536,212.8629 v 0 H 126.55167 L 87.286642,193.56139 v 0 C 26.602716,96.454316 52.987219,36.251186 149.20458,52.017036 Z"
         id="path1963"
         sodipodi:nodetypes="cccccccc" />
      <path
         style="fill:#c8beb7;fill-rule:evenodd;stroke:#000000;stroke-width:3.14285;stroke-linejoin:round;paint-order:markers stroke fill"
         d="m 106.93833,203.54112 -19.651688,-9.97973 -3.617156,-6.04762 C 81.680047,184.18758 77.235015,175.85321 73.791638,168.99294 50.961243,123.50779 49.471847,88.399258 69.526396,68.451271 80.807253,57.230358 96.834523,51.755105 119.0305,51.539625 c 10.85586,-0.105391 23.8125,0.908368 23.8125,1.863149 0,0.37697 -0.66258,0.685403 -1.47239,0.685403 -3.13392,0 -14.8528,4.921535 -20.14116,8.458607 -7.08286,4.737309 -11.70929,10.009825 -15.46239,17.62175 -4.91009,9.958483 -5.64103,13.858679 -5.59612,29.860116 0.0353,12.56995 0.25315,14.9003 2.15305,23.02918 5.23043,22.37886 15.58978,45.09874 28.37002,62.22049 5.00103,6.6999 12.31787,14.06275 16.47695,16.58056 l 2.85359,1.7275 -11.71726,-0.0327 -11.71727,-0.0327 -19.65169,-9.97973 z"
         id="path1967" />
      <path
         style="fill:#000000;fill-rule:evenodd;stroke:#000000;stroke-width:0.19893;stroke-linejoin:round;paint-order:markers stroke fill"
         id="path1965-2"
         sodipodi:type="arc"
         sodipodi:cx="-102.22813"
         sodipodi:cy="83.2239"
         sodipodi:rx="14.536134"
         sodipodi:ry="7.4300351"
         sodipodi:start="4.7300517"
         sodipodi:end="1.6421227"
         sodipodi:open="true"
         sodipodi:arc-type="arc"
         d="m -101.97139,75.795024 a 14.536134,7.4300351 0 0 1 12.5823,3.944911 14.536134,7.4300351 0 0 1 -0.656555,7.537371 14.536134,7.4300351 0 0 1 -13.218415,3.357737"
         transform="matrix(-0.06483785,-0.99789581,0.99279595,-0.11981737,0,0)" />
      <path
         style="fill:#000000;fill-rule:evenodd;stroke:#000000;stroke-width:0.188767;stroke-linejoin:round;paint-order:markers stroke fill"
         id="path1965-7"
         sodipodi:type="arc"
         sodipodi:cx="-101.47627"
         sodipodi:cy="63.86385"
         sodipodi:rx="13.817837"
         sodipodi:ry="7.038002"
         sodipodi:start="4.7300517"
         sodipodi:end="1.6421227"
         sodipodi:open="true"
         sodipodi:arc-type="arc"
         d="m -101.23222,56.826945 a 13.817837,7.038002 0 0 1 11.960548,3.736766 13.817837,7.038002 0 0 1 -0.624112,7.139674 13.817837,7.038002 0 0 1 -12.565226,3.180571"
         transform="matrix(-0.06460608,-0.99791084,0.99274451,-0.1202428,0,0)" />
      <path
         style="fill:#000000;fill-rule:evenodd;stroke:#000000;stroke-width:0.750584;stroke-linejoin:round;paint-order:markers stroke fill"
         id="path1992"
         sodipodi:type="arc"
         sodipodi:cx="115.30139"
         sodipodi:cy="-64.670021"
         sodipodi:rx="16.050083"
         sodipodi:ry="16.370602"
         sodipodi:start="4.7300517"
         sodipodi:end="1.6421227"
         sodipodi:open="true"
         sodipodi:arc-type="arc"
         d="m 115.58486,-81.038069 a 16.050083,16.370602 0 0 1 13.89276,8.691826 16.050083,16.370602 0 0 1 -0.72493,16.607094 16.050083,16.370602 0 0 1 -14.59512,7.398105"
         transform="matrix(0.11104386,0.99381551,-0.99909515,0.04253092,0,0)"
         inkscape:transform-center-x="0.00042023786"
         inkscape:transform-center-y="-1.7628833" />
    </g>
  </g>
</svg>
