<?xml version="1.0" encoding="UTF-8" standalone="no"?>
<svg
   xmlns:dc="http://purl.org/dc/elements/1.1/"
   xmlns:cc="http://creativecommons.org/ns#"
   xmlns:rdf="http://www.w3.org/1999/02/22-rdf-syntax-ns#"
   xmlns:svg="http://www.w3.org/2000/svg"
   xmlns="http://www.w3.org/2000/svg"
   xmlns:sodipodi="http://sodipodi.sourceforge.net/DTD/sodipodi-0.dtd"
   xmlns:inkscape="http://www.inkscape.org/namespaces/inkscape"
   width="210mm"
   height="297mm"
   viewBox="0 0 210 297"
   version="1.1"
   id="svg119"
   inkscape:version="1.0.1 (3bc2e813f5, 2020-09-07)"
   sodipodi:docname="sun-face texure.svg">
  <defs
     id="defs113">
    <rect
       x="80.697917"
       y="157.42708"
       width="27.252083"
       height="14.552083"
       id="rect1195" />
  </defs>
  <sodipodi:namedview
     id="base"
     pagecolor="#ffffff"
     bordercolor="#666666"
     borderopacity="1.0"
     inkscape:pageopacity="0.0"
     inkscape:pageshadow="2"
     inkscape:zoom="1"
     inkscape:cx="339.5"
     inkscape:cy="580.5"
     inkscape:document-units="mm"
     inkscape:current-layer="layer1"
     inkscape:document-rotation="0"
     showgrid="false"
     inkscape:snap-nodes="true"
     inkscape:snap-others="false"
     inkscape:snap-global="false"
     inkscape:window-width="1920"
     inkscape:window-height="1001"
     inkscape:window-x="-9"
     inkscape:window-y="-9"
     inkscape:window-maximized="1" />
  <metadata
     id="metadata116">
    <rdf:RDF>
      <cc:Work
         rdf:about="">
        <dc:format>image/svg+xml</dc:format>
        <dc:type
           rdf:resource="http://purl.org/dc/dcmitype/StillImage" />
        <dc:title></dc:title>
      </cc:Work>
    </rdf:RDF>
  </metadata>
  <g
     inkscape:label="Layer 1"
     inkscape:groupmode="layer"
     id="layer1">
    <ellipse
       style="fill:#ffff00;fill-rule:evenodd;stroke-width:2.065;stroke:#000000;stroke-opacity:1;stroke-miterlimit:4;stroke-dasharray:none;stroke-linecap:butt;stroke-linejoin:round;paint-order:markers stroke fill"
       id="path121"
       cx="94.116074"
       cy="151.19048"
       rx="32.127972"
       ry="34.773808" />
    <path
       style="fill:none;stroke:#000000;stroke-width:0.264583px;stroke-linecap:butt;stroke-linejoin:miter;stroke-opacity:1"
       d="m 89.709015,115.99497 c 2.525697,-7.85772 2.525697,-7.85772 2.525697,-7.85772 l 3.086965,7.29646 3.274049,-6.36102 2.525704,7.29646 3.74177,-5.79975 1.30962,7.10937 4.39658,-4.11595 -0.74835,5.61266 5.79975,-2.43215 -2.61924,5.05139 6.5481,-1.49671 -3.74177,3.92886 7.01582,0.37418 -3.46114,2.61924 7.29646,1.21608 -4.95785,2.89987 6.64164,0.0935 -5.05139,3.08696 9.0738,-0.28063 -6.64165,4.49013 7.20292,-0.28064 -7.10937,3.55469 7.01582,2.5257 -5.51911,2.89987 4.58367,2.5257 -4.58367,3.55468 5.98683,1.96443 -6.82873,3.27405 6.5481,4.2095 -7.57709,0.46772 5.14494,5.14494 -7.85772,0.28063 3.83531,4.2095 -6.36101,-0.46772 3.08696,3.46114 -4.58367,-0.74836 1.12253,3.46114 -3.55468,-0.8419 -0.28064,3.46114 -3.08696,-0.74835 0.0935,3.27405 -2.99342,-1.59025 0.18708,3.27405 -2.61924,-2.05798 0.37418,2.89988 -2.33861,-2.05798 -0.28063,3.74177 -1.96443,-2.52569 -2.05798,3.83532 c 0,0 -0.8419,-3.92887 -1.21607,-3.08697 -0.374182,0.8419 -1.309624,2.61924 -1.309624,2.61924 l -1.028988,-2.24506 -2.245064,1.96443 -0.280633,-1.87089 -2.338607,2.15152 -0.374179,-1.96443 -1.964431,2.05798 0.280633,-2.99342 -1.964431,3.3676 -0.654809,-3.3676 -4.209494,3.92886 -2.525699,-5.98684 -4.864304,3.64823 0.841899,-5.51911 -5.799749,4.11595 2.899873,-5.98684 -4.490127,1.21608 1.496708,-4.30304 -4.022405,1.49671 2.712786,-3.55469 -5.332028,0.28064 3.180508,-4.58368 -4.95785,2.15152 2.338607,-4.49012 -4.209494,1.30961 2.245064,-4.20949 -5.144937,0.37418 4.95785,-4.39659 -6.64165,-0.0935 5.051396,-3.18051 -7.29646,-1.40316 7.202914,-2.5257 -6.454558,-1.6838 6.92228,-3.1805 -6.173925,-2.24507 5.986836,-1.87089 -3.835316,-3.92886 4.77076,-0.93544 -1.96443,-4.77076 3.835318,-1.12253 -1.777344,-5.42558 3.741774,2.24507 -2.15152,-3.92886 3.741775,1.77734 -2.33861,-5.0514 4.30304,2.05798 -1.309621,-2.71279 2.899873,0.93545 -1.683798,-2.61924 3.648231,1.49671 0.280633,-3.92887 1.309619,2.61925 1.122532,-5.42558 1.496711,2.80633 -0.18709,-3.92886 2.525697,3.3676 -0.374177,-4.49013 3.554685,2.89987 2.245064,-5.42557 z"
       id="path954" />
    <path
       style="fill:#ffff00;fill-opacity:1;fill-rule:evenodd;stroke:#000000;stroke-width:2.75939;stroke-linecap:butt;stroke-linejoin:round;stroke-miterlimit:4;stroke-dasharray:none;stroke-opacity:1;paint-order:markers stroke fill"
       d=""
       id="path956"
       transform="scale(0.26458333)" />
    <path
       style="fill:#ffff00;fill-opacity:1;fill-rule:evenodd;stroke:#000000;stroke-width:2.75939;stroke-linecap:butt;stroke-linejoin:round;stroke-miterlimit:4;stroke-dasharray:none;stroke-opacity:1;paint-order:markers stroke fill"
       d="m 219.12729,609.51261 -2.0772,-0.20573 7.91784,-4.9737 7.91783,-4.9737 1.0037,4.44337 c 0.55204,2.44385 1.08451,4.80134 1.18326,5.23886 l 0.17957,0.7955 -7.0239,-0.0594 c -3.86314,-0.0327 -7.95864,-0.15201 -9.1011,-0.26516 z"
       id="path958"
       transform="scale(0.26458333)" />
    <path
       style="fill:#ffff00;fill-opacity:1;fill-rule:evenodd;stroke:#000000;stroke-width:2.75939;stroke-linecap:butt;stroke-linejoin:round;stroke-miterlimit:4;stroke-dasharray:none;stroke-opacity:1;paint-order:markers stroke fill"
       d="m 220.14383,595.00049 c -5.63917,-1.1143 -10.57049,-2.09207 -10.95847,-2.17283 -0.39098,-0.0814 4.2675,-1.88177 10.4509,-4.03901 l 11.15632,-3.89219 0.60366,4.78059 c 0.33201,2.62932 0.70132,5.37721 0.82068,6.10641 0.20982,1.28182 0.18322,1.32445 -0.80151,1.28442 -0.56019,-0.0228 -5.6324,-0.9531 -11.27158,-2.06739 z"
       id="path960"
       transform="scale(0.26458333)" />
    <path
       style="fill:#ffff00;fill-opacity:1;fill-rule:evenodd;stroke:#000000;stroke-width:2.75939;stroke-linecap:butt;stroke-linejoin:round;stroke-miterlimit:4;stroke-dasharray:none;stroke-opacity:1;paint-order:markers stroke fill"
       d="m 220.22869,579.34714 c -5.20359,-1.37565 -9.41972,-2.53648 -9.36916,-2.57961 0.0505,-0.0431 4.42736,-2.07086 9.72625,-4.50606 l 9.63433,-4.42765 0.003,4.64985 c 0.001,2.55742 0.10393,5.72377 0.2279,7.03633 0.18134,1.92008 0.12902,2.38081 -0.26768,2.35741 -0.27119,-0.016 -4.75055,-1.15461 -9.95415,-2.53027 z"
       id="path962"
       transform="scale(0.26458333)" />
    <path
       style="fill:#ffff00;fill-opacity:1;fill-rule:evenodd;stroke:#000000;stroke-width:2.75939;stroke-linecap:butt;stroke-linejoin:round;stroke-miterlimit:4;stroke-dasharray:none;stroke-opacity:1;paint-order:markers stroke fill"
       d="m 222.17513,559.66916 c -4.52196,-1.63875 -8.13921,-3.06208 -8.03833,-3.16297 0.10089,-0.10088 4.08181,-1.40656 8.8465,-2.90151 l 8.66306,-2.71809 -0.215,1.63298 c -0.11825,0.89814 -0.39939,3.54461 -0.62474,5.88106 l -0.40974,4.24808 z"
       id="path964"
       transform="scale(0.26458333)" />
    <path
       style="fill:#ffff00;fill-opacity:1;fill-rule:evenodd;stroke:#000000;stroke-width:2.75939;stroke-linecap:butt;stroke-linejoin:round;stroke-miterlimit:4;stroke-dasharray:none;stroke-opacity:1;paint-order:markers stroke fill"
       d="m 226.59992,540.73003 -5.55643,-5.77049 7.15157,-1.38844 c 3.93336,-0.76364 7.19667,-1.3587 7.2518,-1.32235 0.0551,0.0364 -0.22083,1.24075 -0.61323,2.67644 -0.3924,1.43569 -1.11485,4.58702 -1.60546,7.00294 -0.49061,2.41592 -0.93247,4.43305 -0.98192,4.48249 -0.0495,0.0494 -2.59029,-2.50682 -5.64633,-5.68059 z"
       id="path966"
       transform="scale(0.26458333)" />
    <path
       style="fill:#ffff00;fill-opacity:1;fill-rule:evenodd;stroke:#000000;stroke-width:2.75939;stroke-linecap:butt;stroke-linejoin:round;stroke-miterlimit:4;stroke-dasharray:none;stroke-opacity:1;paint-order:markers stroke fill"
       d="m 233.96326,520.37331 c -1.52382,-3.70282 -2.70964,-6.79333 -2.63516,-6.86781 0.26144,-0.26144 12.14448,-3.67076 12.28935,-3.52589 0.0806,0.0806 -0.34716,1.22247 -0.95055,2.53752 -1.37132,2.98873 -4.03966,9.86144 -4.87474,12.55565 -0.34657,1.11812 -0.72647,2.03293 -0.84423,2.03293 -0.11775,0 -1.46086,-3.02958 -2.98467,-6.7324 z"
       id="path970"
       transform="scale(0.26458333)" />
    <path
       style="fill:#ffff00;fill-opacity:1;fill-rule:evenodd;stroke:#000000;stroke-width:2.75939;stroke-linecap:butt;stroke-linejoin:round;stroke-miterlimit:4;stroke-dasharray:none;stroke-opacity:1;paint-order:markers stroke fill"
       d="m 242.13208,498.78281 c -1.5181,-4.68815 -2.71114,-8.57294 -2.65121,-8.63287 0.11643,-0.11644 10.50533,6.06078 11.02281,6.55414 0.17158,0.16358 -0.23754,1.20566 -0.92435,2.35446 -0.67769,1.13355 -1.98256,3.45312 -2.89971,5.15459 -0.91714,1.70148 -1.6945,3.09359 -1.72745,3.09359 -0.033,0 -1.302,-3.83576 -2.82009,-8.52391 z"
       id="path972"
       transform="scale(0.26458333)" />
    <path
       style="fill:#ffff00;fill-opacity:1;fill-rule:evenodd;stroke:#000000;stroke-width:2.75939;stroke-linecap:butt;stroke-linejoin:round;stroke-miterlimit:4;stroke-dasharray:none;stroke-opacity:1;paint-order:markers stroke fill"
       d="m 249.02675,489.66849 c -1.59321,-2.89776 -2.89674,-5.36487 -2.89674,-5.48247 0,-0.43503 0.70562,-0.16341 5.40866,2.08203 l 4.80864,2.29586 -1.98259,2.91906 c -1.09043,1.60548 -2.08579,3.03946 -2.21191,3.18662 -0.12612,0.14715 -1.53285,-2.10334 -3.12606,-5.0011 z"
       id="path974"
       transform="scale(0.26458333)" />
    <path
       style="fill:#ffff00;fill-opacity:1;fill-rule:evenodd;stroke:#000000;stroke-width:2.75939;stroke-linecap:butt;stroke-linejoin:round;stroke-miterlimit:4;stroke-dasharray:none;stroke-opacity:1;paint-order:markers stroke fill"
       d="m 254.42231,478.98777 c -1.8999,-4.06779 -3.38185,-7.46849 -3.29321,-7.55713 0.0886,-0.0886 3.20846,1.29393 6.93296,3.07237 6.75256,3.22434 6.77009,3.2357 6.17032,3.99925 -0.33081,0.42114 -1.89618,2.36676 -3.47859,4.3236 l -2.87711,3.55787 z"
       id="path976"
       transform="scale(0.26458333)" />
    <path
       style="fill:#ffff00;fill-opacity:1;fill-rule:evenodd;stroke:#000000;stroke-width:2.75939;stroke-linecap:butt;stroke-linejoin:round;stroke-miterlimit:4;stroke-dasharray:none;stroke-opacity:1;paint-order:markers stroke fill"
       d="m 264.05407,472.64002 c -1.05126,-2.22606 -1.87248,-4.09617 -1.82492,-4.15578 0.13199,-0.16545 8.64832,2.55794 8.63094,2.76004 -0.008,0.0972 -1.11307,1.36171 -2.45491,2.80996 l -2.43971,2.63318 z"
       id="path978"
       transform="scale(0.26458333)" />
    <path
       style="fill:#ffff00;fill-opacity:1;fill-rule:evenodd;stroke:#000000;stroke-width:2.75939;stroke-linecap:butt;stroke-linejoin:round;stroke-miterlimit:4;stroke-dasharray:none;stroke-opacity:1;paint-order:markers stroke fill"
       d="m 269.70167,466.39739 c -1.3149,-2.04818 -2.33365,-3.78106 -2.26387,-3.85083 0.0698,-0.0698 2.14057,0.69793 4.60176,1.70601 5.06753,2.07563 4.95252,1.7613 1.65572,4.52507 l -1.60287,1.34372 z"
       id="path980"
       transform="scale(0.26458333)" />
    <path
       style="fill:#ffff00;fill-opacity:1;fill-rule:evenodd;stroke:#000000;stroke-width:2.75939;stroke-linecap:butt;stroke-linejoin:round;stroke-miterlimit:4;stroke-dasharray:none;stroke-opacity:1;paint-order:markers stroke fill"
       d=""
       id="path982"
       transform="scale(0.26458333)" />
    <path
       style="fill:#ffff00;fill-opacity:1;fill-rule:evenodd;stroke:#000000;stroke-width:2.75939;stroke-linecap:butt;stroke-linejoin:round;stroke-miterlimit:4;stroke-dasharray:none;stroke-opacity:1;paint-order:markers stroke fill"
       d="m 279.86253,462.70298 c 0.0961,-0.45533 0.27988,-2.57792 0.40846,-4.71687 l 0.23378,-3.88901 1.53319,3.00512 c 0.84326,1.65282 1.54119,3.08677 1.55095,3.18656 0.01,0.0998 -0.86397,0.87008 -1.94165,1.71175 -1.76469,1.37824 -1.94204,1.44805 -1.78473,0.70245 z"
       id="path984"
       transform="scale(0.26458333)" />
    <path
       style="fill:#ffff00;fill-opacity:1;fill-rule:evenodd;stroke:#000000;stroke-width:2.75939;stroke-linecap:butt;stroke-linejoin:round;stroke-miterlimit:4;stroke-dasharray:none;stroke-opacity:1;paint-order:markers stroke fill"
       d=""
       id="path986"
       transform="scale(0.26458333)" />
    <path
       style="fill:#ffff00;fill-opacity:1;fill-rule:evenodd;stroke:#000000;stroke-width:2.75939;stroke-linecap:butt;stroke-linejoin:round;stroke-miterlimit:4;stroke-dasharray:none;stroke-opacity:1;paint-order:markers stroke fill"
       d="m 286.4351,457.93155 c 0,-0.1272 0.66508,-3.47141 1.47796,-7.43159 0.92964,-4.52904 1.60211,-7.07617 1.81261,-6.86568 0.18405,0.18406 1.24843,2.05661 2.36528,4.16122 1.52737,2.87819 2.22324,3.85535 2.80773,3.94271 0.75119,0.11227 0.77071,0.0357 0.58577,-2.2981 -0.38312,-4.83465 -0.60755,-10.53052 -0.40701,-10.32998 0.11306,0.11306 1.79408,2.32495 3.7356,4.91531 l 3.53003,4.70974 -3.26769,1.75264 c -3.63993,1.9523 -11.44855,6.82332 -11.76868,7.3413 -0.23403,0.37866 -0.8716,0.45358 -0.8716,0.10243 z"
       id="path988"
       transform="scale(0.26458333)" />
    <path
       style="fill:#ffff00;fill-opacity:1;fill-rule:evenodd;stroke:#000000;stroke-width:2.75939;stroke-linecap:butt;stroke-linejoin:round;stroke-miterlimit:4;stroke-dasharray:none;stroke-opacity:1;paint-order:markers stroke fill"
       d="m 303.67726,441.05369 c -0.30458,-3.71566 -0.51803,-6.79429 -0.47433,-6.84142 0.10639,-0.11472 10.96153,8.75616 11.07503,9.05059 0.0489,0.12686 -0.90569,0.6121 -2.12132,1.07829 -1.21564,0.4662 -3.4962,1.43728 -5.06792,2.15795 l -2.85768,1.31033 z"
       id="path990"
       transform="scale(0.26458333)" />
    <path
       style="fill:#ffff00;fill-opacity:1;fill-rule:evenodd;stroke:#000000;stroke-width:2.75939;stroke-linecap:butt;stroke-linejoin:round;stroke-miterlimit:4;stroke-dasharray:none;stroke-opacity:1;paint-order:markers stroke fill"
       d="m 317.18919,442.02897 c -0.003,-0.16852 1.6252,-4.25891 3.61772,-9.08976 l 3.62275,-8.78336 6.24214,6.48526 c 3.43317,3.5669 6.17103,6.60459 6.08414,6.75043 -0.0869,0.14584 -0.48742,0.26517 -0.89005,0.26517 -0.40264,0 -2.58086,0.41376 -4.8405,0.91948 -3.44858,0.77181 -5.82052,1.41415 -13.21243,3.57806 -0.3403,0.0996 -0.62099,0.0432 -0.62377,-0.12528 z"
       id="path992"
       transform="scale(0.26458333)" />
    <path
       style="fill:#ffff00;fill-opacity:1;fill-rule:evenodd;stroke:#000000;stroke-width:2.75939;stroke-linecap:butt;stroke-linejoin:round;stroke-miterlimit:4;stroke-dasharray:none;stroke-opacity:1;paint-order:markers stroke fill"
       d="m 340.26673,436.72307 c 0.0996,-0.16709 1.96399,-5.87227 4.14321,-12.67817 2.17921,-6.8059 4.0744,-12.49328 4.21152,-12.63861 0.17746,-0.18808 8.79072,19.48019 10.58671,24.17461 0.0648,0.16942 -1.54284,0.30804 -3.57258,0.30804 -3.67577,0 -11.57185,0.51397 -14.1793,0.92295 -0.75381,0.11824 -1.28912,0.0783 -1.18956,-0.0888 z"
       id="path994"
       transform="scale(0.26458333)" />
    <path
       style="fill:#ffff00;fill-opacity:1;fill-rule:evenodd;stroke:#000000;stroke-width:2.75939;stroke-linecap:butt;stroke-linejoin:round;stroke-miterlimit:4;stroke-dasharray:none;stroke-opacity:1;paint-order:markers stroke fill"
       d="m 379.41964,438.31177 c -3.05576,-0.67106 -10.9212,-1.7417 -14.32578,-1.95001 -2.51576,-0.15393 -3.70233,-0.35961 -3.63245,-0.62965 0.29955,-1.15752 11.08562,-21.66152 11.20627,-21.30279 0.0783,0.23276 1.95275,5.65833 4.16546,12.05683 2.21272,6.3985 3.97831,11.73798 3.92353,11.8655 -0.0548,0.12753 -0.65644,0.10959 -1.33703,-0.0399 z"
       id="path996"
       transform="scale(0.26458333)" />
    <path
       style="fill:#ffff00;fill-opacity:1;fill-rule:evenodd;stroke:#000000;stroke-width:2.75939;stroke-linecap:butt;stroke-linejoin:round;stroke-miterlimit:4;stroke-dasharray:none;stroke-opacity:1;paint-order:markers stroke fill"
       d="m 395.85987,443.07363 c -2.33345,-0.8783 -6.08559,-2.10083 -8.33809,-2.71674 l -4.09545,-1.11984 6.19708,-9.61923 c 3.4084,-5.29058 6.25254,-9.56378 6.32031,-9.49601 0.0678,0.0678 1.06831,5.27386 2.22344,11.5691 1.15512,6.29523 2.18548,11.80385 2.28968,12.24137 0.10421,0.43752 0.0671,0.78261 -0.0824,0.76687 -0.14954,-0.0157 -2.18109,-0.74723 -4.51454,-1.62552 z"
       id="path998"
       transform="scale(0.26458333)" />
    <path
       style="fill:#ffff00;fill-opacity:1;fill-rule:evenodd;stroke:#000000;stroke-width:2.75939;stroke-linecap:butt;stroke-linejoin:round;stroke-miterlimit:4;stroke-dasharray:none;stroke-opacity:1;paint-order:markers stroke fill"
       d="m 408.05746,448.36638 c -3.2085,-1.63696 -5.83363,-3.08763 -5.83363,-3.2237 0,-0.29435 14.43009,-13.85661 14.58183,-13.70487 0.18171,0.18171 -2.5254,20.00996 -2.72457,19.95616 -0.1045,-0.0282 -2.81513,-1.39064 -6.02363,-3.02759 z"
       id="path1000"
       transform="scale(0.26458333)" />
    <path
       style="fill:#ffff00;fill-opacity:1;fill-rule:evenodd;stroke:#000000;stroke-width:2.75939;stroke-linecap:butt;stroke-linejoin:round;stroke-miterlimit:4;stroke-dasharray:none;stroke-opacity:1;paint-order:markers stroke fill"
       d="m 423.59148,457.418 c -1.64058,-1.17087 -4.20652,-2.85178 -5.7021,-3.73536 -2.36164,-1.39524 -2.66822,-1.68816 -2.3314,-2.22749 0.32396,-0.51875 18.62784,-8.50996 19.46648,-8.49879 0.23998,0.003 -6.35742,13.0975 -7.87665,15.6333 l -0.57346,0.95719 z"
       id="path1002"
       transform="scale(0.26458333)" />
    <path
       style="fill:#ffff00;fill-opacity:1;fill-rule:evenodd;stroke:#000000;stroke-width:2.75939;stroke-linecap:butt;stroke-linejoin:round;stroke-miterlimit:4;stroke-dasharray:none;stroke-opacity:1;paint-order:markers stroke fill"
       d="m 435.61269,466.88452 c -1.04466,-0.96057 -3.12038,-2.73231 -4.61271,-3.93719 l -2.71332,-2.1907 10.4348,-2.3732 c 5.73914,-1.30525 10.48315,-2.32484 10.54224,-2.26575 0.0591,0.0591 -2.56084,2.89877 -5.82209,6.31039 l -5.92953,6.20294 z"
       id="path1004"
       transform="scale(0.26458333)" />
    <path
       style="fill:#ffff00;fill-opacity:1;fill-rule:evenodd;stroke:#000000;stroke-width:2.75939;stroke-linecap:butt;stroke-linejoin:round;stroke-miterlimit:4;stroke-dasharray:none;stroke-opacity:1;paint-order:markers stroke fill"
       d="m 448.58628,480.22682 c -0.53518,-0.67072 -2.81939,-3.22324 -5.07603,-5.67226 l -4.10298,-4.45277 1.38405,0.20522 c 0.76122,0.11287 5.44107,0.38445 10.39966,0.60351 4.95858,0.21907 9.38928,0.50833 9.84598,0.64282 0.73595,0.21672 0.17307,0.74167 -4.94975,4.61627 -3.17906,2.40447 -5.94836,4.57537 -6.154,4.82423 -0.29064,0.35174 -0.5905,0.18098 -1.34693,-0.76702 z"
       id="path1006"
       transform="scale(0.26458333)" />
    <path
       style="fill:#ffff00;fill-opacity:1;fill-rule:evenodd;stroke:#000000;stroke-width:2.75939;stroke-linecap:butt;stroke-linejoin:round;stroke-miterlimit:4;stroke-dasharray:none;stroke-opacity:1;paint-order:markers stroke fill"
       d="m 458.51456,493.59915 c -0.68921,-1.11405 -2.77151,-4.08109 -4.62735,-6.59341 -2.91394,-3.94473 -3.29842,-4.62329 -2.81845,-4.97426 0.43161,-0.3156 3.28077,0.0487 12.7517,1.63044 6.70775,1.12027 12.26339,2.10434 12.34588,2.18682 0.10706,0.10707 -13.34994,8.14025 -16.17922,9.65822 -0.12071,0.0648 -0.78336,-0.79375 -1.47256,-1.90781 z"
       id="path1008"
       transform="scale(0.26458333)" />
    <path
       style="fill:#ffff00;fill-opacity:1;fill-rule:evenodd;stroke:#000000;stroke-width:2.75939;stroke-linecap:butt;stroke-linejoin:round;stroke-miterlimit:4;stroke-dasharray:none;stroke-opacity:1;paint-order:markers stroke fill"
       d=""
       id="path1010"
       transform="scale(0.26458333)" />
    <path
       style="fill:#ffff00;fill-opacity:1;fill-rule:evenodd;stroke:#000000;stroke-width:2.75939;stroke-linecap:butt;stroke-linejoin:round;stroke-miterlimit:4;stroke-dasharray:none;stroke-opacity:1;paint-order:markers stroke fill"
       d="m 465.12716,504.92624 c -0.71936,-1.31587 -1.98384,-3.58573 -2.80996,-5.04414 l -1.50203,-2.65165 3.76157,-0.0876 c 2.06887,-0.0482 6.91557,0.0314 10.77046,0.17678 l 7.00889,0.26434 -7.51163,4.59619 c -4.13139,2.52791 -7.71362,4.71822 -7.9605,4.86736 -0.31128,0.18806 -0.84977,-0.46216 -1.7568,-2.12132 z"
       id="path1012"
       transform="scale(0.26458333)" />
    <path
       style="fill:#ffff00;fill-opacity:1;fill-rule:evenodd;stroke:#000000;stroke-width:2.75939;stroke-linecap:butt;stroke-linejoin:round;stroke-miterlimit:4;stroke-dasharray:none;stroke-opacity:1;paint-order:markers stroke fill"
       d="m 471.8827,520.09346 c -0.9279,-2.46303 -2.36412,-5.93187 -3.1916,-7.70855 l -1.50452,-3.23031 4.28818,-0.21097 c 2.3585,-0.11603 7.78835,-0.29562 12.06635,-0.39909 4.278,-0.10347 9.28962,-0.27957 11.13693,-0.39133 l 3.35876,-0.20321 -5.12652,3.49363 c -2.81959,1.9215 -8.32467,5.66138 -12.23351,8.31085 l -7.10699,4.81721 z"
       id="path1014"
       transform="scale(0.26458333)" />
    <path
       style="fill:#ffff00;fill-opacity:1;fill-rule:evenodd;stroke:#000000;stroke-width:2.75939;stroke-linecap:butt;stroke-linejoin:round;stroke-miterlimit:4;stroke-dasharray:none;stroke-opacity:1;paint-order:markers stroke fill"
       d="m 476.28028,533.73484 c -0.21659,-0.82643 -0.79861,-2.84602 -1.29337,-4.48797 l -0.89957,-2.98537 0.72715,-0.58881 c 0.82684,-0.66954 3.76477,-0.90859 15.09058,-1.22788 3.88909,-0.10964 7.62792,-0.27098 8.30851,-0.35853 0.78768,-0.10134 -2.81038,1.88927 -9.8995,5.47684 -6.12531,3.09982 -11.25012,5.64465 -11.38847,5.65518 -0.13834,0.0105 -0.42874,-0.65703 -0.64533,-1.48346 z"
       id="path1016"
       transform="scale(0.26458333)" />
    <path
       style="fill:#ffff00;fill-opacity:1;fill-rule:evenodd;stroke:#000000;stroke-width:2.75939;stroke-linecap:butt;stroke-linejoin:round;stroke-miterlimit:4;stroke-dasharray:none;stroke-opacity:1;paint-order:markers stroke fill"
       d="m 480.38331,555.61646 c -0.0936,-0.61069 -0.41908,-2.94 -0.72336,-5.17622 -0.30428,-2.23623 -0.92664,-5.8955 -1.38302,-8.13173 -0.45639,-2.23622 -0.81099,-4.08725 -0.78801,-4.11338 0.023,-0.0261 5.0534,1.76315 11.17871,3.9762 6.12532,2.21305 11.25091,4.06407 11.39021,4.11338 0.1393,0.0493 -2.48361,1.52156 -5.8287,3.27165 -3.34508,1.75008 -7.79056,4.07939 -9.87884,5.17622 l -3.79687,1.99425 z"
       id="path1018"
       transform="scale(0.26458333)" />
    <path
       style="fill:#ffff00;fill-opacity:1;fill-rule:evenodd;stroke:#000000;stroke-width:2.75939;stroke-linecap:butt;stroke-linejoin:round;stroke-miterlimit:4;stroke-dasharray:none;stroke-opacity:1;paint-order:markers stroke fill"
       d="m 481.05092,570.29645 c -0.008,-4.99006 -0.12963,-9.749 -0.26934,-10.57543 -0.20315,-1.20166 -0.14991,-1.50261 0.26582,-1.50261 0.81816,0 16.16827,8.56721 15.85529,8.84916 -0.20782,0.18723 -10.019,7.80956 -15.4829,12.0287 -0.23352,0.18033 -0.35875,-2.80721 -0.36887,-8.79982 z"
       id="path1020"
       transform="scale(0.26458333)" />
    <path
       style="fill:#ffff00;fill-opacity:1;fill-rule:evenodd;stroke:#000000;stroke-width:2.75939;stroke-linecap:butt;stroke-linejoin:round;stroke-miterlimit:4;stroke-dasharray:none;stroke-opacity:1;paint-order:markers stroke fill"
       d="m 478.76814,598.51433 c 0,-0.18096 0.31094,-2.28144 0.69098,-4.66773 0.38004,-2.38629 0.88068,-6.29574 1.11253,-8.68767 0.279,-2.8784 0.55344,-4.2986 0.81161,-4.20004 0.21455,0.0819 4.90987,1.63731 10.43406,3.45645 l 10.04397,3.30754 -4.5639,2.20495 c -14.96111,7.22815 -18.52925,8.88163 -18.52925,8.5865 z"
       id="path1022"
       transform="scale(0.26458333)" />
    <path
       style="fill:#ffff00;fill-opacity:1;fill-rule:evenodd;stroke:#000000;stroke-width:2.75939;stroke-linecap:butt;stroke-linejoin:round;stroke-miterlimit:4;stroke-dasharray:none;stroke-opacity:1;paint-order:markers stroke fill"
       d="m 474.17195,616.64491 c 0,-0.20309 0.34035,-1.45993 0.75635,-2.79298 0.41599,-1.33305 1.33878,-4.76705 2.05064,-7.6311 l 1.29429,-5.20737 11.16833,7.17593 11.16833,7.17594 -10.12538,0.6128 c -5.56896,0.33703 -11.5175,0.70802 -13.21897,0.82441 -2.04947,0.1402 -3.09359,0.087 -3.09359,-0.15763 z"
       id="path1024"
       transform="scale(0.26458333)" />
    <path
       style="fill:#ffff00;fill-opacity:1;fill-rule:evenodd;stroke:#000000;stroke-width:2.75939;stroke-linecap:butt;stroke-linejoin:round;stroke-miterlimit:4;stroke-dasharray:none;stroke-opacity:1;paint-order:markers stroke fill"
       d="m 467.58533,632.78265 c 1.23836,-2.60559 3.0982,-6.93333 4.13298,-9.61718 l 1.88142,-4.87974 8.94082,8.93566 c 5.64432,5.64106 8.78058,9.02018 8.50622,9.16489 -0.23902,0.12608 -4.09387,0.33243 -8.56632,0.45855 -4.47245,0.12612 -10.16009,0.32965 -12.63921,0.45228 l -4.50748,0.22298 z"
       id="path1026"
       transform="scale(0.26458333)" />
    <path
       style="fill:#ffff00;fill-opacity:1;fill-rule:evenodd;stroke:#000000;stroke-width:2.75939;stroke-linecap:butt;stroke-linejoin:round;stroke-miterlimit:4;stroke-dasharray:none;stroke-opacity:1;paint-order:markers stroke fill"
       d="m 467.10088,652.60402 c -4.37523,-0.34305 -8.46058,-0.6793 -9.07858,-0.74723 l -1.12362,-0.12351 2.4724,-3.88908 c 1.35983,-2.139 2.96154,-4.80391 3.55937,-5.92202 0.59783,-1.11811 1.19153,-2.03293 1.31934,-2.03293 0.12781,0 2.14805,2.10806 4.48943,4.68458 2.34139,2.57652 5.0944,5.5994 6.11781,6.71751 1.65443,1.80753 1.76861,2.02758 1.02977,1.98466 -0.45703,-0.0265 -4.4107,-0.32894 -8.78592,-0.67198 z"
       id="path1028"
       transform="scale(0.26458333)" />
    <path
       style="fill:#ffff00;fill-opacity:1;fill-rule:evenodd;stroke:#000000;stroke-width:2.75939;stroke-linecap:butt;stroke-linejoin:round;stroke-miterlimit:4;stroke-dasharray:none;stroke-opacity:1;paint-order:markers stroke fill"
       d="m 456.14072,663.13834 c -3.5974,-0.58892 -6.60408,-1.12587 -6.68151,-1.19323 -0.0774,-0.0674 0.45975,-0.88114 1.19372,-1.8084 0.73398,-0.92725 1.99057,-2.59616 2.79243,-3.70868 0.80186,-1.11252 1.56136,-1.98757 1.68777,-1.94454 0.12641,0.043 1.85819,1.90786 3.84839,4.14409 1.9902,2.23622 3.94302,4.42383 4.33959,4.86136 0.69739,0.7694 0.69873,0.79425 0.0407,0.75782 -0.37419,-0.0207 -3.62368,-0.51951 -7.22109,-1.10842 z"
       id="path1030"
       transform="scale(0.26458333)" />
    <path
       style="fill:#ffff00;fill-opacity:1;fill-rule:evenodd;stroke:#000000;stroke-width:2.75939;stroke-linecap:butt;stroke-linejoin:round;stroke-miterlimit:4;stroke-dasharray:none;stroke-opacity:1;paint-order:markers stroke fill"
       d="m 445.43758,673.19889 c -2.87269,-0.69527 -5.17963,-1.37189 -5.12653,-1.50362 0.0531,-0.13172 1.84664,-2.07552 3.98563,-4.31956 l 3.88909,-4.08006 1.81215,5.62092 c 1.49506,4.63736 1.71158,5.61439 1.23744,5.58367 -0.3161,-0.0205 -2.9251,-0.60609 -5.79778,-1.30135 z"
       id="path1032"
       transform="scale(0.26458333)" />
    <path
       style="fill:#ffff00;fill-opacity:1;fill-rule:evenodd;stroke:#000000;stroke-width:2.75939;stroke-linecap:butt;stroke-linejoin:round;stroke-miterlimit:4;stroke-dasharray:none;stroke-opacity:1;paint-order:markers stroke fill"
       d="m 433.0481,683.52594 c -2.49208,-0.62643 -4.60185,-1.20975 -4.68837,-1.29627 -0.0865,-0.0865 0.83877,-0.93638 2.05619,-1.8886 1.21743,-0.95221 3.62405,-2.99212 5.34805,-4.53313 2.87609,-2.57081 3.11794,-2.71684 2.93302,-1.77099 -0.11084,0.56697 -0.30683,2.73318 -0.43553,4.8138 -0.1287,2.08062 -0.33487,4.23997 -0.45815,4.79855 l -0.22414,1.01561 z"
       id="path1034"
       transform="scale(0.26458333)" />
    <path
       style="fill:#ffff00;fill-opacity:1;fill-rule:evenodd;stroke:#000000;stroke-width:2.75939;stroke-linecap:butt;stroke-linejoin:round;stroke-miterlimit:4;stroke-dasharray:none;stroke-opacity:1;paint-order:markers stroke fill"
       d="m 422.27904,691.72477 c -2.19253,-1.1887 -4.02217,-2.2653 -4.06586,-2.39244 -0.0437,-0.12714 1.6877,-1.41997 3.84754,-2.87295 l 3.92698,-2.64178 0.24487,4.9472 c 0.13468,2.72097 0.19718,4.98637 0.13888,5.03423 -0.0583,0.0479 -1.89988,-0.88556 -4.09241,-2.07426 z"
       id="path1036"
       transform="scale(0.26458333)" />
    <path
       style="fill:#ffff00;fill-opacity:1;fill-rule:evenodd;stroke:#000000;stroke-width:2.75939;stroke-linecap:butt;stroke-linejoin:round;stroke-miterlimit:4;stroke-dasharray:none;stroke-opacity:1;paint-order:markers stroke fill"
       d="m 412.3001,697.27575 c -1.84731,-1.47626 -3.33479,-2.7813 -3.30549,-2.90008 0.0293,-0.11879 1.41225,-0.95344 3.07322,-1.85477 l 3.01996,-1.63879 0.18568,1.81557 c 0.1738,1.69942 0.49839,7.31576 0.42068,7.27891 -0.0194,-0.009 -1.54673,-1.22458 -3.39405,-2.70084 z"
       id="path1038"
       transform="scale(0.26458333)" />
    <path
       style="fill:#ffff00;fill-opacity:1;fill-rule:evenodd;stroke:#000000;stroke-width:2.75939;stroke-linecap:butt;stroke-linejoin:round;stroke-miterlimit:4;stroke-dasharray:none;stroke-opacity:1;paint-order:markers stroke fill"
       d=""
       id="path1040"
       transform="scale(0.26458333)" />
    <path
       style="fill:#ffff00;fill-opacity:1;fill-rule:evenodd;stroke:#000000;stroke-width:2.75939;stroke-linecap:butt;stroke-linejoin:round;stroke-miterlimit:4;stroke-dasharray:none;stroke-opacity:1;paint-order:markers stroke fill"
       d=""
       id="path1042"
       transform="scale(0.26458333)" />
    <path
       style="fill:#ffff00;fill-opacity:1;fill-rule:evenodd;stroke:#000000;stroke-width:2.75939;stroke-linecap:butt;stroke-linejoin:round;stroke-miterlimit:4;stroke-dasharray:none;stroke-opacity:1;paint-order:markers stroke fill"
       d="m 403.88587,700.06958 -2.58061,-2.37435 2.44697,-1.10011 2.44696,-1.1001 0.21427,2.04994 c 0.11784,1.12746 0.31763,2.69643 0.44399,3.48659 0.12635,0.79015 0.0901,1.43119 -0.0806,1.42451 -0.17069,-0.007 -1.47162,-1.08059 -2.89095,-2.38648 z"
       id="path1044"
       transform="scale(0.26458333)" />
    <path
       style="fill:#ffff00;fill-opacity:1;fill-rule:evenodd;stroke:#000000;stroke-width:2.75939;stroke-linecap:butt;stroke-linejoin:round;stroke-miterlimit:4;stroke-dasharray:none;stroke-opacity:1;paint-order:markers stroke fill"
       d="m 394.71858,705.48538 c -1.40552,-1.79985 -2.63896,-3.49344 -2.74097,-3.76354 -0.13372,-0.35407 0.71404,-0.80525 3.03865,-1.61716 l 3.22411,-1.12607 -0.25487,4.48483 c -0.14017,2.46666 -0.35758,4.66699 -0.48314,4.88962 -0.13368,0.23704 -1.28729,-0.95134 -2.78378,-2.86768 z"
       id="path1046"
       transform="scale(0.26458333)" />
    <path
       style="fill:#ffff00;fill-opacity:1;fill-rule:evenodd;stroke:#000000;stroke-width:2.75939;stroke-linecap:butt;stroke-linejoin:round;stroke-miterlimit:4;stroke-dasharray:none;stroke-opacity:1;paint-order:markers stroke fill"
       d="m 382.61505,711.74897 c -0.24895,-1.11811 -0.87691,-3.23505 -1.39548,-4.7043 l -0.94284,-2.67137 4.40983,-1.12285 c 2.4254,-0.61757 4.47237,-1.0603 4.54882,-0.98385 0.12857,0.12856 -5.88324,11.51531 -6.07969,11.51531 -0.0484,0 -0.29168,-0.91482 -0.54064,-2.03294 z"
       id="path1048"
       transform="scale(0.26458333)" />
    <path
       style="fill:#ffff00;fill-opacity:1;fill-rule:evenodd;stroke:#000000;stroke-width:2.75939;stroke-linecap:butt;stroke-linejoin:round;stroke-miterlimit:4;stroke-dasharray:none;stroke-opacity:1;paint-order:markers stroke fill"
       d="m 371.89072,709.28577 c -0.73795,-1.65799 -1.27604,-3.08021 -1.19577,-3.16049 0.22587,-0.22587 6.05275,-1.11951 6.22961,-0.95541 0.19782,0.18354 -2.85811,6.4468 -3.337,6.83935 -0.22025,0.18053 -0.86466,-0.85376 -1.69684,-2.72345 z"
       id="path1050"
       transform="scale(0.26458333)" />
    <path
       style="fill:#ffff00;fill-opacity:1;fill-rule:evenodd;stroke:#000000;stroke-width:2.75939;stroke-linecap:butt;stroke-linejoin:round;stroke-miterlimit:4;stroke-dasharray:none;stroke-opacity:1;paint-order:markers stroke fill"
       d=""
       id="path1054"
       transform="scale(0.26458333)" />
    <path
       style="fill:#ffff00;fill-opacity:1;fill-rule:evenodd;stroke:#000000;stroke-width:2.75939;stroke-linecap:butt;stroke-linejoin:round;stroke-miterlimit:4;stroke-dasharray:none;stroke-opacity:1;paint-order:markers stroke fill"
       d="m 361.09863,709.28097 c -0.21514,-1.29833 -0.35727,-2.38557 -0.31585,-2.4161 0.0414,-0.0305 1.58674,-0.15191 3.43406,-0.26975 l 3.35876,-0.21425 -1.41422,1.2391 c -0.77781,0.68151 -2.14712,1.86516 -3.0429,2.63034 l -1.62869,1.39124 z"
       id="path1056"
       transform="scale(0.26458333)" />
    <path
       style="fill:#ffff00;fill-opacity:1;fill-rule:evenodd;stroke:#000000;stroke-width:2.75939;stroke-linecap:butt;stroke-linejoin:round;stroke-miterlimit:4;stroke-dasharray:none;stroke-opacity:1;paint-order:markers stroke fill"
       d="m 351.19352,711.04742 c -0.196,-0.92671 -0.46692,-2.28607 -0.60204,-3.02079 l -0.24568,-1.33586 3.48837,0.23553 c 1.91861,0.12954 3.5318,0.27029 3.58488,0.31277 0.0531,0.0425 -1.24577,1.29585 -2.88633,2.78526 l -2.98283,2.70802 z"
       id="path1058"
       transform="scale(0.26458333)" />
    <path
       style="fill:#ffff00;fill-opacity:1;fill-rule:evenodd;stroke:#000000;stroke-width:2.75939;stroke-linecap:butt;stroke-linejoin:round;stroke-miterlimit:4;stroke-dasharray:none;stroke-opacity:1;paint-order:markers stroke fill"
       d=""
       id="path1060"
       transform="scale(0.26458333)" />
    <path
       style="fill:#ffff00;fill-opacity:1;fill-rule:evenodd;stroke:#000000;stroke-width:2.75939;stroke-linecap:butt;stroke-linejoin:round;stroke-miterlimit:4;stroke-dasharray:none;stroke-opacity:1;paint-order:markers stroke fill"
       d="m 343.15865,711.48381 c 0.0948,-0.58337 0.26924,-1.97548 0.38766,-3.09359 0.24021,-2.26801 0.25193,-2.27365 3.62285,-1.74156 l 1.51387,0.23895 -2.84836,2.82843 c -2.62032,2.60198 -2.83457,2.74351 -2.67602,1.76777 z"
       id="path1062"
       transform="scale(0.26458333)" />
    <path
       style="fill:#ffff00;fill-opacity:1;fill-rule:evenodd;stroke:#000000;stroke-width:2.75939;stroke-linecap:butt;stroke-linejoin:round;stroke-miterlimit:4;stroke-dasharray:none;stroke-opacity:1;paint-order:markers stroke fill"
       d="m 335.27824,709.32361 c -0.43999,-2.25761 -0.75118,-4.15273 -0.69154,-4.21137 0.0596,-0.0587 0.98348,0.0405 2.05298,0.22034 1.0695,0.17983 2.45002,0.40944 3.06782,0.51025 l 1.12328,0.18327 -2.14192,3.70113 c -1.17806,2.03562 -2.24739,3.70112 -2.37629,3.70112 -0.1289,0 -0.59435,-1.84713 -1.03433,-4.10474 z"
       id="path1064"
       transform="scale(0.26458333)" />
    <path
       style="fill:#ffff00;fill-opacity:1;fill-rule:evenodd;stroke:#000000;stroke-width:2.75939;stroke-linecap:butt;stroke-linejoin:round;stroke-miterlimit:4;stroke-dasharray:none;stroke-opacity:1;paint-order:markers stroke fill"
       d="m 313.93626,707.81153 c -2.08357,-4.9806 -3.88662,-9.32406 -4.00677,-9.65212 -0.17717,-0.48377 0.37159,-0.36482 2.90443,0.62956 4.26975,1.67628 9.83433,3.45083 14.43939,4.60475 l 3.84743,0.96408 -2.48727,2.32557 c -1.368,1.27906 -4.38214,4.09367 -6.69809,6.25469 l -4.21081,3.92912 z"
       id="path1066"
       transform="scale(0.26458333)" />
    <path
       style="fill:#ffff00;fill-opacity:1;fill-rule:evenodd;stroke:#000000;stroke-width:2.75939;stroke-linecap:butt;stroke-linejoin:round;stroke-miterlimit:4;stroke-dasharray:none;stroke-opacity:1;paint-order:markers stroke fill"
       d="m 290.6992,706.65303 c 0.0118,-0.45434 0.60924,-4.60322 1.32765,-9.21972 l 1.30618,-8.39365 2.1195,1.2798 c 1.16572,0.70389 4.02869,2.2707 6.36214,3.48178 l 4.24264,2.20198 -6.33369,4.73509 c -3.48353,2.6043 -6.94393,5.18638 -7.68978,5.73795 l -1.3561,1.00286 z"
       id="path1068"
       transform="scale(0.26458333)" />
    <path
       style="fill:#ffff00;fill-opacity:1;fill-rule:evenodd;stroke:#000000;stroke-width:2.75939;stroke-linecap:butt;stroke-linejoin:round;stroke-miterlimit:4;stroke-dasharray:none;stroke-opacity:1;paint-order:markers stroke fill"
       d="m 273.00007,701.26211 c 0,-0.15095 9.16241,-19.2747 9.37947,-19.5768 0.0395,-0.055 1.80683,1.13824 3.92734,2.65165 2.12052,1.51342 4.22624,2.99403 4.67939,3.29025 0.80854,0.52856 0.65735,0.65705 -8.11217,6.8943 -9.58981,6.82067 -9.87403,7.0147 -9.87403,6.7406 z"
       id="path1070"
       transform="scale(0.26458333)" />
    <path
       style="fill:#ffff00;fill-opacity:1;fill-rule:evenodd;stroke:#000000;stroke-width:2.75939;stroke-linecap:butt;stroke-linejoin:round;stroke-miterlimit:4;stroke-dasharray:none;stroke-opacity:1;paint-order:markers stroke fill"
       d="m 268.31208,677.97499 2.37992,-6.89718 3.20525,3.05566 c 1.76289,1.68061 4.10431,3.7716 5.20317,4.64665 1.09885,0.87504 2.00545,1.68459 2.01465,1.79898 0.009,0.11439 -3.12548,1.04996 -6.96596,2.07903 -3.84047,1.02907 -7.26039,1.94821 -7.59981,2.04254 -0.50201,0.13951 -0.17314,-1.11526 1.76278,-6.72568 z"
       id="path1072"
       transform="scale(0.26458333)" />
    <path
       style="fill:#ffff00;fill-opacity:1;fill-rule:evenodd;stroke:#000000;stroke-width:2.75939;stroke-linecap:butt;stroke-linejoin:round;stroke-miterlimit:4;stroke-dasharray:none;stroke-opacity:1;paint-order:markers stroke fill"
       d="m 257.79727,673.34617 c 0,-0.17022 5.76998,-7.87279 6.33721,-8.45981 0.14985,-0.15507 1.31815,0.79501 2.59623,2.11128 l 2.32377,2.39324 -4.8403,1.8166 c -5.67645,2.1304 -6.41691,2.37719 -6.41691,2.13869 z"
       id="path1074"
       transform="scale(0.26458333)" />
    <path
       style="fill:#ffff00;fill-opacity:1;fill-rule:evenodd;stroke:#000000;stroke-width:2.75939;stroke-linecap:butt;stroke-linejoin:round;stroke-miterlimit:4;stroke-dasharray:none;stroke-opacity:1;paint-order:markers stroke fill"
       d="m 249.89964,657.66283 c 4.68713,-6.79944 4.34498,-6.40017 4.83306,-5.63997 0.22711,0.35372 1.86431,2.5811 3.63824,4.94974 l 3.22532,4.30663 -3.22532,0.22387 c -1.77393,0.12313 -5.10871,0.32933 -7.41064,0.45822 l -4.18532,0.23434 z"
       id="path1076"
       transform="scale(0.26458333)" />
    <path
       style="fill:#ffff00;fill-opacity:1;fill-rule:evenodd;stroke:#000000;stroke-width:2.75939;stroke-linecap:butt;stroke-linejoin:round;stroke-miterlimit:4;stroke-dasharray:none;stroke-opacity:1;paint-order:markers stroke fill"
       d="m 243.70048,645.59044 3.27974,-6.31963 2.2529,3.88911 c 1.24138,2.14295 2.11762,4.02438 1.95161,4.19039 -0.35808,0.35809 -9.98246,4.55975 -10.44461,4.55975 -0.17566,0 1.15649,-2.84383 2.96036,-6.31962 z"
       id="path1080"
       transform="scale(0.26458333)" />
    <path
       style="fill:#ffff00;fill-opacity:1;fill-rule:evenodd;stroke:#000000;stroke-width:2.75939;stroke-linecap:butt;stroke-linejoin:round;stroke-miterlimit:4;stroke-dasharray:none;stroke-opacity:1;paint-order:markers stroke fill"
       d="m 233.41208,639.97763 c 0.005,-0.14584 1.6647,-3.35797 3.68713,-7.13808 l 3.67714,-6.87292 0.90906,2.05556 c 0.49999,1.13055 0.90906,2.11519 0.90906,2.1881 0,0.0729 0.69647,1.54239 1.5477,3.26553 l 1.54769,3.13299 -5.93065,1.817 c -6.37167,1.95211 -6.36213,1.94978 -6.34713,1.55182 z"
       id="path1082"
       transform="scale(0.26458333)" />
    <path
       style="fill:#ffff00;fill-opacity:1;fill-rule:evenodd;stroke:#000000;stroke-width:2.75939;stroke-linecap:butt;stroke-linejoin:round;stroke-miterlimit:4;stroke-dasharray:none;stroke-opacity:1;paint-order:markers stroke fill"
       d="m 223.5073,625.63288 c 0.48355,-0.45539 3.10656,-2.79194 5.82892,-5.19232 2.72236,-2.40038 5.44194,-4.82061 6.04352,-5.37829 l 1.09376,-1.01397 1.81637,5.21969 c 1.143,3.28461 1.69226,5.3438 1.4816,5.55446 -0.18413,0.18413 -3.16423,0.53575 -6.62245,0.78137 -3.45822,0.24563 -7.24015,0.53895 -8.40428,0.65182 l -2.11661,0.20523 z"
       id="path1084"
       transform="scale(0.26458333)" />
    <path
       style="fill:none;stroke:#000000;stroke-width:0.264583px;stroke-linecap:butt;stroke-linejoin:miter;stroke-opacity:1"
       d="m 72.12268,143.21637 c 0.124727,0.0624 0.244705,0.1353 0.374179,0.18709 0.118404,0.0474 0.682561,0.0329 0.748355,0 0.03944,-0.0197 0.05076,-0.0829 0.09354,-0.0935 0.315955,-0.079 0.708194,0.0458 1.028988,0 0.373735,-0.0534 0.751499,-0.0405 1.122532,-0.0935 0.224721,-0.0321 0.430893,-0.14977 0.654809,-0.18709 0.291071,-0.0485 0.639345,0 0.935443,0 0.403561,0 1.811681,0.26347 2.15152,0.0935 0.23074,-0.11537 0.522399,-0.0741 0.748355,-0.18709 0.428115,-0.21406 -0.396949,0.0388 0.280633,-0.18709 0.144717,-0.0482 1.396225,-0.0502 1.496709,0 0.500157,0.25008 1.10867,0.18709 1.683797,0.18709 0.0963,0 0.117391,-0.16324 0.18709,-0.0935 0.07675,0.0768 0.06135,1.0642 0,1.30962 -0.09476,0.37905 -0.258882,0.77664 -0.374177,1.12253 -0.07292,0.21875 -0.03537,0.4221 -0.09355,0.65481 -0.10278,0.41113 -1.031242,1.81003 -1.403164,2.05797 -0.524537,0.3497 -1.194301,0.80013 -1.870885,0.93545 -0.38731,0.0775 -0.833509,-0.0956 -1.216078,0 -0.383336,0.0958 -0.915114,0.19217 -1.309621,0.0935 -0.215953,-0.054 -0.436507,-0.24425 -0.65481,-0.28063 -0.215299,-0.0359 -0.443058,0.0529 -0.654809,0 -0.08556,-0.0214 -0.108207,-0.14765 -0.18709,-0.18709 -0.05669,-0.0283 -0.241434,-0.0543 -0.280632,-0.0935 -0.09029,-0.0903 -0.126625,-0.25867 -0.280633,-0.37418 -0.164251,-0.12319 -0.390271,-0.16664 -0.561266,-0.28063 -0.45089,-0.3006 -0.956138,-1.07038 -1.216076,-1.59026 -0.03129,-0.0626 -0.655246,-0.5617 -0.748355,-0.65481 -0.06289,-0.0629 -0.139126,-0.27825 -0.18709,-0.37418 -0.194654,-0.3893 0.0065,0.10001 -0.187089,-0.0935 -0.169114,-0.16911 -0.03943,-0.21185 -0.09354,-0.37417 -0.218498,-0.6555 -0.3683,-0.77187 -0.187089,-1.49672 z"
       id="path1086" />
    <path
       style="fill:none;stroke:#000000;stroke-width:0.264583px;stroke-linecap:butt;stroke-linejoin:miter;stroke-opacity:1"
       d="m 102.05687,142.93574 c -0.36737,1.38528 0.19615,1.85452 1.02899,2.80633 0.28735,0.32841 0.50394,0.58844 0.8419,0.8419 0.87257,0.65443 2.02269,0.94515 3.08696,1.12253 0.42333,0.0706 0.17772,0.14432 0.65481,0.28063 0.20987,0.06 0.43787,-0.0241 0.65481,0 0.235,0.0261 0.84481,0.32595 1.12253,0.18709 0.16434,-0.0822 0.31115,-0.29589 0.46772,-0.37417 0.0558,-0.0279 0.13131,0.0279 0.18709,0 0.47372,0.12851 0.0935,-0.21827 0.18709,-0.28064 0.19864,-0.13242 0.47569,-0.19506 0.65481,-0.37417 0.25708,-0.25708 0.46292,-0.52001 0.74835,-0.74836 0.37064,0.0187 0.0885,-0.27557 0.18709,-0.37418 0.0441,-0.0441 0.143,0.0441 0.18709,0 0.27701,-0.83103 -0.06,-0.11593 0.18709,-0.28063 0.50465,-0.33643 -0.0644,-0.0291 0.28063,-0.37418 0.0493,-0.0493 0.13779,-0.0442 0.18709,-0.0935 0.17377,-0.17376 0.29356,-0.48065 0.46772,-0.65481 0.022,-0.022 0.0796,0.0279 0.0935,0 0.0279,-0.0558 -0.0151,-0.12659 0,-0.18709 0.041,-0.16399 0.24578,-0.3283 0.28063,-0.46772 0.0191,-0.0763 0.0213,-0.76968 0.0935,-0.8419 0.0146,-0.0146 0.21098,-0.1632 0.0935,-0.28063 -0.10755,-0.10755 -0.9256,0 -1.12253,0 -1.25671,0 -2.60937,-0.15165 -3.83532,0.0935 -0.89421,0.17884 -1.87512,0.0935 -2.80633,0.0935 -0.12064,0 -0.66824,0.0579 -0.8419,0 -0.0418,-0.0139 -0.0508,-0.0828 -0.0935,-0.0935 -0.54985,-0.13746 -2.27942,0 -2.99342,0 z"
       id="path1088" />
    <path
       style="fill:none;stroke:#000000;stroke-width:0.264583px;stroke-linecap:butt;stroke-linejoin:miter;stroke-opacity:1"
       d="m 102.05687,142.93574 c -0.0936,0.0935 -0.15676,0.23418 -0.28063,0.28063 -0.49691,0.18634 -1.67222,-0.14321 -2.245069,0 -0.192566,0.0481 -0.368702,0.13895 -0.561266,0.18709 -0.358558,0.0896 -2.792351,0.0647 -3.180508,0 -1.909665,-0.31827 -3.80588,0.18709 -5.706203,0.18709 -0.276299,0 -0.490011,-0.0505 -0.748355,-0.0935 -0.613746,-0.10229 -1.339358,0 -1.964431,0 -0.679302,0 -1.412586,-0.0655 -2.057977,-0.28064 -0.132291,-0.0441 -0.238892,-0.15326 -0.374176,-0.18709 -0.287557,-0.0719 -0.654968,0.0935 -0.935442,0 -0.277172,-0.0924 -0.340672,-0.0935 -0.654812,-0.0935 -0.0062,0 0.400439,-0.0673 0.467722,0 0.125638,0.12564 -0.132929,0.89606 -0.09355,0.93545 0.106823,0.10682 0.838377,0 1.028989,0 1.074401,0 2.105805,-0.0936 3.180508,-0.0936 0.06252,0 0.58578,-0.069 0.65481,0 0.02204,0.022 -0.02204,0.0715 0,0.0936 0.0938,0.0938 0.530367,0.0313 0.654809,0.0935 0.02789,0.0139 -0.02789,0.0796 0,0.0935 0.174159,0.0871 0.46836,-0.0622 0.654812,0 0.121967,0.0407 0.259186,0.0361 0.374176,0.0935 0.02789,0.0139 -0.02204,0.0715 0,0.0935 0.08959,0.0896 1.750224,-0.04 1.964431,-0.0935 0.674986,-0.16875 1.476534,0.16875 2.15152,0 1.377487,-0.34437 3.302992,-0.18709 4.77076,-0.18709 0.717175,0 1.434352,0 2.151522,0 0.23436,0 0.56005,0.004 0.56127,0 0.0917,-0.33634 0.12466,-0.68599 0.18699,-1.02899"
       id="path1090" />
    <path
       style="fill:#000000;stroke:#000000;stroke-width:0.264583px;stroke-linecap:butt;stroke-linejoin:miter;stroke-opacity:1"
       d="m 72.122675,143.21649 c 0.29219,-0.23771 0.864147,-0.58362 1.122539,-0.84201 0.02204,-0.022 -0.02204,-0.0715 0,-0.0935 0.01725,-0.0173 1.105932,0 1.216076,0 0.237569,0 0.36486,0.005 0.561266,-0.0935 0.402703,-0.20135 1.840121,0.16616 2.338607,0 0.117686,-0.0392 0.236159,-0.14109 0.374179,-0.18709 0.397584,-0.13253 3.352106,-0.0218 3.928861,0.0935 0.237985,0.0476 0.51322,-0.0588 0.748356,0 0.162903,0.0407 0.303064,0.15416 0.467719,0.18709 0.451665,0.0903 0.841899,-0.0336 0.841899,0.46772"
       id="path1092" />
    <path
       style="fill:#000000;fill-opacity:1;fill-rule:evenodd;stroke:#000000;stroke-width:2.75939;stroke-linecap:butt;stroke-linejoin:round;stroke-miterlimit:4;stroke-dasharray:none;stroke-opacity:1;paint-order:markers stroke fill"
       d="m 291.7384,562.12411 c -0.87505,-0.37631 -2.08362,-0.6931 -2.68572,-0.70396 -1.30348,-0.0235 -3.17777,-0.8947 -3.44975,-1.60346 -0.10672,-0.27812 -0.79842,-0.81711 -1.53709,-1.19777 -1.66584,-0.85844 -3.1861,-2.44964 -4.84026,-5.06613 -0.70028,-1.10769 -1.81388,-2.42634 -2.47465,-2.93034 -0.66077,-0.50399 -1.39658,-1.38757 -1.63514,-1.9635 -0.23856,-0.57592 -0.54449,-1.04714 -0.67984,-1.04714 -0.30333,0 -1.43704,-3.52148 -1.4328,-4.45049 0.003,-0.62595 0.34993,-0.68413 4.68459,-0.78538 2.57482,-0.0601 5.71563,-0.27897 6.97959,-0.48629 3.99633,-0.65549 6.02669,-0.72462 9.87092,-0.3361 3.861,0.39021 7.12801,-0.009 8.3468,-1.02088 0.49549,-0.41122 1.75337,-0.38313 9.62461,0.21489 l 2.91681,0.22161 -0.005,1.81872 c -0.002,1.00029 -0.40023,3.0578 -0.88389,4.57222 -0.48364,1.51443 -0.87935,3.13477 -0.87935,3.60076 0,0.46598 -0.97466,2.30437 -2.16591,4.0853 -1.61864,2.4199 -2.62363,3.52966 -3.97747,4.39212 -3.48172,2.218 -4.12643,2.43634 -7.99876,2.70882 -2.04177,0.14367 -4.26916,0.35121 -4.94975,0.46121 -0.82047,0.13261 -1.77353,-0.0306 -2.82842,-0.48421 z"
       id="path1094"
       transform="scale(0.26458333)" />
    <path
       style="fill:#000000;fill-opacity:1;fill-rule:evenodd;stroke:#000000;stroke-width:2.75939;stroke-linecap:butt;stroke-linejoin:round;stroke-miterlimit:4;stroke-dasharray:none;stroke-opacity:1;paint-order:markers stroke fill"
       d="m 286.15593,561.66556 c -0.59996,-0.43752 -2.04799,-1.47258 -3.21785,-2.30012 -1.31659,-0.93135 -2.43847,-2.94871 -3.47993,-4.34227 -0.96085,-1.2857 -2.19216,-3.1212 -3.36895,-4.42449 -1.67685,-1.85709 -2.26019,-2.86021 -2.42115,-4.64938 -0.4806,-5.34226 -0.11832,-5.76349 0.78019,-6.29692 2.82038,-1.67441 5.02972,-2.82527 1.86457,-0.91785 4.88672,-4.10212 28.68397,-1.40872 37.60357,-1.31718 2.10388,0.54859 3.40185,1.54883 2.6295,2.02635 1.13012,1.24727 3.04874,0.55378 5.05382,1.0745 12.43087,-2.08139 55.17329,8.6683 63.40664,0.0164 0.68609,-0.73643 0.88127,-0.74644 13.19958,-0.6767 6.87676,0.0389 16.83847,-0.0436 22.13713,-0.18344 8.77483,-0.23155 9.65393,-0.20214 9.85805,0.3298 0.12327,0.32121 0.0439,0.76425 -0.17638,0.98452 -0.22028,0.22028 -0.4005,0.97144 -0.4005,1.66925 0,1.92976 -1.72643,4.87904 -4.50781,7.70074 -0.63197,0.64114 -1.14905,1.3195 -1.14905,1.50748 0,0.18797 -0.15909,0.34177 -0.35355,0.34177 -0.19445,0 -0.35355,0.24258 -0.35355,0.53908 -8.35994,9.43471 -25.47382,6.1374 -32.92372,-0.7981 -4.17322,-4.36806 -5.80849,-7.15961 -5.39865,-9.21595 l 0.1903,-0.95486 c -46.33357,-6.17317 -70.64814,2.46295 -61.92354,-0.0115 -2.37062,-0.68691 -5.79641,-1.48624 -6.16535,0.37295 -0.13432,0.71597 -0.19418,1.34674 -0.13302,1.40173 0.0611,0.055 3.98171,-0.0611 8.71236,-0.25793 19.07235,3.61445 43.93531,-2.38108 58.22041,0.79282 -20.61079,0.61754 -41.41821,-0.69927 -57.93039,-0.12664 -6.93094,0.28201 -8.86265,-1.4099 -10.27528,4.12159 -3.18262,10.03247 -17.52755,19.00182 -29.47745,13.59429 z m 136.39722,-9.47757 c 0,-0.44495 1.51973,-1.94828 1.85616,-1.83614 0.14584,0.0486 0.26516,-0.14466 0.26516,-0.4295 0,-0.28484 0.302,-0.67952 0.6711,-0.87705 1.04144,-0.55737 3.57154,-4.80638 3.57154,-5.998 0,-0.57547 0.15962,-1.46613 0.3547,-1.97925 l 0.35471,-0.93293 -9.28193,0.20485 c -5.10506,0.11267 -12.06616,0.2981 -15.46911,0.41206 -3.77488,0.12642 -7.08318,0.0594 -8.48528,-0.17184 -1.41849,-0.23396 -3.85433,-0.28022 -6.36396,-0.12086 l -4.06587,0.25819 -0.10266,2.30431 c -0.0916,2.05643 0.89438,4.59611 1.83304,6.01041 0.57851,0.87163 1.30173,0.69257 2.68746,2.19482 10.14254,7.40057 25.63657,14.0201 32.17494,0.96093 z"
       id="path1096"
       sodipodi:nodetypes="cssssscccccssssssssccscccsccccccssssscsssscssccs"
       transform="scale(0.26458333)" />
    <path
       style="fill:#000000;fill-opacity:1;fill-rule:evenodd;stroke:#000000;stroke-width:2.75939;stroke-linecap:butt;stroke-linejoin:round;stroke-miterlimit:4;stroke-dasharray:none;stroke-opacity:1;paint-order:markers stroke fill"
       d="m 411.91709,558.07187 c -0.081,-0.0806 -4.51138,-2.85323 -7.15699,-1.6271 -3.00542,1.39289 -6.92279,-3.74057 -8.22622,-2.48502 -3.55608,3.42544 -6.30675,-4.33877 -7.74939,-7.06091 -0.74121,-1.3986 -3.78744,-0.79377 -3.78744,-1.89914 0,-0.80037 0.0369,-1.93883 0.18278,-1.95922 0.14584,-0.0204 13.2576,-0.20241 22.98031,-0.25629 9.72272,-0.0539 18.1352,-3.03461 19.25332,-3.17718 13.27531,-1.95682 -10.71379,16.94644 -15.49637,18.46486 z"
       id="path1100"
       transform="scale(0.26458333)"
       sodipodi:nodetypes="csssssscc" />
    <path
       style="fill:none;stroke:#000000;stroke-width:2.365;stroke-linecap:butt;stroke-linejoin:miter;stroke-opacity:1;stroke-miterlimit:4;stroke-dasharray:none"
       d="m 74.083332,159.01458 c 5.947363,4.22913 8.341998,9.13936 14.022917,10.84792 2.122739,0.53068 4.229169,0.70694 6.35,0 3.291574,-1.05529 12.082891,-7.22657 12.170831,-11.1125"
       id="path1207"
       sodipodi:nodetypes="cccc" />
    <path
       style="fill:none;stroke:#000000;stroke-width:1.2264;stroke-linecap:butt;stroke-linejoin:miter;stroke-miterlimit:4;stroke-dasharray:none;stroke-opacity:1"
       d="m 86.284371,148.40349 c 0.262626,7.28934 0.525252,7.952 0.525252,7.952 h 8.141397"
       id="path1209" />
  </g>
</svg>
